<svg width="77" height="77" viewBox="0 0 77 77" fill="none" xmlns="http://www.w3.org/2000/svg">
<g clip-path="url(#clip0_812_27670)">
<path d="M8.25 5.5C3.69531 5.5 0 9.19531 0 13.75V74.25C0 78.8047 3.69531 82.5 8.25 82.5H68.75C73.3047 82.5 77 78.8047 77 74.25V13.75C77 9.19531 73.3047 5.5 68.75 5.5H8.25ZM25.245 28.3996C28.6199 28.3996 31.6185 29.5665 33.8265 31.3165C35.8684 32.941 36.8247 34.5661 37.659 36.0247L31.8285 38.9378C31.4114 37.9813 30.9095 36.9806 29.6206 35.8987C28.203 34.7725 26.7884 34.4405 25.5774 34.4405C20.8292 34.4405 18.3294 38.8565 18.3294 43.7711C18.3294 50.2289 21.6227 53.4339 25.5774 53.4339C29.4102 53.4339 30.9533 50.7681 31.9505 49.0622L37.7438 52.0197C36.6584 53.7257 35.617 55.3945 33.2836 57.0159C32.0354 57.8908 29.1625 59.6004 25.079 59.6004C17.2882 59.6004 11 53.9361 11 43.9777C11 35.2746 16.9151 28.3996 25.245 28.3996ZM38.2186 29.3152H46.0501L52.1314 50.2287L58.1685 29.3153H66L55.7942 58.7252H48.2986L38.2186 29.3152Z" fill="#FF8800"/>
</g>
<defs>
<clipPath id="clip0_812_27670">
<rect width="77" height="77" fill="white"/>
</clipPath>
</defs>
</svg>
