<svg width="88" height="88" viewBox="0 0 88 88" fill="none" xmlns="http://www.w3.org/2000/svg">
<path d="M44 80.6667L36.6667 58.6667H7.33337L14.6667 80.6667H44ZM44 80.6667H58.6667M44 47.6667V45.8334C44 38.918 44 35.464 41.8514 33.3154C39.7027 31.1667 36.2487 31.1667 29.3334 31.1667C22.418 31.1667 18.964 31.1667 16.8154 33.3154C14.6667 35.464 14.6667 38.918 14.6667 45.8334V47.6667M51.3334 64.1667H73.3334C75.2783 64.1667 77.1436 64.9393 78.5188 66.3146C79.8941 67.6899 80.6667 69.5551 80.6667 71.5V73.3334C80.6667 75.2783 79.8941 77.1436 78.5188 78.5188C77.1436 79.8941 75.2783 80.6667 73.3334 80.6667H69.6667M69.6667 47.6667C69.6667 49.6116 68.8941 51.4769 67.5188 52.8522C66.1436 54.2274 64.2783 55 62.3334 55C60.3885 55 58.5232 54.2274 57.1479 52.8522C55.7727 51.4769 55 49.6116 55 47.6667C55 45.7218 55.7727 43.8565 57.1479 42.4813C58.5232 41.106 60.3885 40.3334 62.3334 40.3334C64.2783 40.3334 66.1436 41.106 67.5188 42.4813C68.8941 43.8565 69.6667 45.7218 69.6667 47.6667ZM36.6667 14.6667C36.6667 16.6116 35.8941 18.4769 34.5188 19.8522C33.1436 21.2274 31.2783 22 29.3334 22C27.3885 22 25.5232 21.2274 24.1479 19.8522C22.7727 18.4769 22 16.6116 22 14.6667C22 12.7218 22.7727 10.8565 24.1479 9.48126C25.5232 8.10599 27.3885 7.33337 29.3334 7.33337C31.2783 7.33337 33.1436 8.10599 34.5188 9.48126C35.8941 10.8565 36.6667 12.7218 36.6667 14.6667Z" stroke="#FF8800" stroke-width="5.5" stroke-linecap="round" stroke-linejoin="round"/>
</svg>
