<svg width="88" height="88" viewBox="0 0 88 88" fill="none" xmlns="http://www.w3.org/2000/svg">
<g clip-path="url(#clip0_803_26582)">
<path d="M33.4231 -5.14984e-05C32.9318 0.0729983 32.4627 0.253261 32.0489 0.527948C32.0489 0.527948 27.7674 3.2221 23.1643 6.13626C18.5612 9.04703 13.4403 12.2556 12.2692 12.9055L12.056 13.007C7.80492 15.6301 6.92154 19.915 6.76923 22.3181C6.75908 22.4298 6.76923 22.5212 6.76923 22.6396C6.732 23.5399 6.76923 24.1187 6.76923 24.1187V68.3319C6.76923 74.7559 14.2594 77.8461 21.3671 77.8461C23.7363 77.8461 26.1055 77.4636 28.1363 76.7867C29.4902 76.1098 30.4615 74.756 30.4615 73.4021V37.8636C30.4615 30.079 32.1538 26.4236 37.2308 23.3775C38.5846 22.7006 52.7797 12.9021 52.7797 12.9021C53.4566 12.2252 54.1539 10.851 54.1539 9.83564V9.51749C54.1539 8.16364 53.4769 7.12795 52.4615 6.45103C51.4462 5.7741 50.0923 5.7741 49.0769 6.45103C48.7385 6.78949 28.0923 20.6901 23.6923 23.0593C19.2923 25.767 15.1868 26.4203 14.1714 25.0664C13.8566 24.7516 13.5825 23.787 13.5385 22.8461V22.6329C13.5418 21.7123 13.7788 19.9793 15.6538 18.8252C17.556 17.7658 22.2775 14.7501 26.8671 11.8461C28.8065 10.6175 29.0468 10.4855 30.5665 9.51749C30.7665 10.3443 31.2706 11.0655 31.9784 11.5375C32.6861 12.0095 33.5457 12.1976 34.3859 12.0645C35.2261 11.9313 35.9853 11.4867 36.5125 10.819C37.0397 10.1514 37.2961 9.30967 37.2308 8.46149V3.38456C37.2346 2.90214 37.1352 2.42448 36.9393 1.9836C36.7434 1.54273 36.4555 1.14883 36.0949 0.828311C35.7343 0.507795 35.3094 0.268067 34.8486 0.1252C34.3878 -0.0176666 33.9017 -0.0603715 33.4231 -5.14984e-05ZM60.5 11.8461C59.9618 11.9356 59.4532 12.1539 59.0175 12.4824C59.0175 12.4824 41.9794 23.9461 39.028 25.9126L38.9231 26.0209C36.4726 27.8587 35.0206 30.0452 34.3742 32.0455C34.014 33.1744 33.8358 34.3535 33.8462 35.5384V36.5978C33.8413 36.7027 33.8413 36.8077 33.8462 36.9126V77.8461C33.8462 84.2769 41.2517 87.9999 48.0209 87.9999C51.0671 87.9999 53.8154 87.3433 55.8462 85.9895C59.9077 83.6203 79.5385 68.3286 79.5385 68.3286C80.5539 67.6516 81.2308 66.6972 81.2308 65.6818V21.6818C81.2308 19.9895 80.5742 18.9741 79.2203 18.2972C78.2049 17.6203 76.5363 17.9384 75.5209 18.6153C70.1055 22.6769 55.528 34.1439 52.1434 36.1747C47.4049 38.8824 42.9406 39.5593 41.2483 37.867C40.5714 37.1901 40.6154 36.5538 40.6154 35.5384C40.6334 34.9517 40.7045 34.4576 40.8286 34.056C41.0182 33.467 41.404 32.7427 42.8357 31.6258C42.9034 31.5716 42.8695 31.575 42.9406 31.5209C45.3877 29.8861 52.8711 24.7855 57.7517 21.4686C58.0282 22.2104 58.556 22.8318 59.2433 23.2247C59.9305 23.6176 60.7338 23.7572 61.5133 23.6192C62.2928 23.4811 62.9993 23.0742 63.5099 22.4692C64.0204 21.8641 64.3027 21.0993 64.3077 20.3076V15.2307C64.3115 14.7483 64.2121 14.2706 64.0162 13.8298C63.8203 13.3889 63.5324 12.995 63.1718 12.6745C62.8112 12.3539 62.3863 12.1142 61.9255 11.9714C61.4647 11.8285 60.9787 11.7858 60.5 11.8461ZM74.4615 36.5978V43.367L57.5385 56.479V49.7098L74.4615 36.5978Z" fill="#104BC1"/>
</g>
<defs>
<clipPath id="clip0_803_26582">
<rect width="88" height="88" fill="white"/>
</clipPath>
</defs>
</svg>
