<svg width="59" height="59" viewBox="0 0 59 59" fill="none" xmlns="http://www.w3.org/2000/svg">
<path d="M20.9956 16.1903C20.9956 15.0677 21.2167 13.9561 21.6463 12.9189C22.0759 11.8818 22.7056 10.9394 23.4994 10.1456C24.2932 9.35183 25.2356 8.72216 26.2727 8.29256C27.3099 7.86296 28.4215 7.64185 29.5441 7.64185C30.6667 7.64185 31.7783 7.86296 32.8154 8.29256C33.8526 8.72216 34.7949 9.35183 35.5887 10.1456C36.3825 10.9394 37.0122 11.8818 37.4418 12.9189C37.8714 13.9561 38.0925 15.0677 38.0925 16.1903C38.0925 18.4575 37.1919 20.6318 35.5887 22.235C33.9856 23.8381 31.8113 24.7388 29.5441 24.7388C27.2769 24.7388 25.1025 23.8381 23.4994 22.235C21.8962 20.6318 20.9956 18.4575 20.9956 16.1903ZM11.2259 27.1812C12.8454 27.1812 14.3985 26.5379 15.5436 25.3928C16.6887 24.2477 17.332 22.6946 17.332 21.0751C17.332 19.4557 16.6887 17.9026 15.5436 16.7575C14.3985 15.6124 12.8454 14.9691 11.2259 14.9691C9.60652 14.9691 8.05343 15.6124 6.90832 16.7575C5.76322 17.9026 5.11991 19.4557 5.11991 21.0751C5.11991 22.6946 5.76322 24.2477 6.90832 25.3928C8.05343 26.5379 9.60652 27.1812 11.2259 27.1812ZM53.9682 21.0751C53.9682 22.6946 53.3249 24.2477 52.1798 25.3928C51.0347 26.5379 49.4816 27.1812 47.8622 27.1812C46.2428 27.1812 44.6897 26.5379 43.5446 25.3928C42.3995 24.2477 41.7561 22.6946 41.7561 21.0751C41.7561 19.4557 42.3995 17.9026 43.5446 16.7575C44.6897 15.6124 46.2428 14.9691 47.8622 14.9691C49.4816 14.9691 51.0347 15.6124 52.1798 16.7575C53.3249 17.9026 53.9682 19.4557 53.9682 21.0751ZM25.8804 29.6236C22.5099 29.6236 19.7744 32.3591 19.7744 35.7296V41.8357C19.7744 44.4267 20.8037 46.9117 22.6359 48.7439C24.468 50.576 26.953 51.6053 29.5441 51.6053C32.1351 51.6053 34.6201 50.576 36.4523 48.7439C38.2844 46.9117 39.3137 44.4267 39.3137 41.8357V35.7296C39.3137 32.3591 36.5782 29.6236 33.2077 29.6236H25.8804ZM14.8896 35.7296C14.8896 34.3179 15.1534 32.9697 15.6418 31.7338L9.62861 33.3458C8.06527 33.7649 6.73228 34.7875 5.92256 36.1889C5.11285 37.5904 4.89267 39.2559 5.31042 40.8196L6.25807 44.3611C6.59023 45.6006 7.16329 46.7624 7.94453 47.7803C8.72577 48.7983 9.69988 49.6523 10.8112 50.2937C11.9226 50.9351 13.1494 51.3513 14.4216 51.5186C15.6939 51.6858 16.9866 51.6007 18.2259 51.2683L18.309 51.2439C16.1002 48.6064 14.8897 45.2759 14.8896 41.8357V35.7296ZM44.1986 41.8357C44.1986 45.4162 42.9138 48.6989 40.7792 51.2487L40.8573 51.2683C43.3596 51.9382 46.0256 51.5869 48.2689 50.2916C50.5123 48.9964 52.1494 46.8632 52.8203 44.3611L53.7679 40.8196C54.1857 39.2559 53.9655 37.5904 53.1558 36.1889C52.3461 34.7875 51.0131 33.7649 49.4498 33.3458L43.4512 31.7338C43.9348 32.9746 44.1986 34.3228 44.1986 35.7296V41.8357Z" fill="#104BC1"/>
</svg>
