<svg width="117" height="117" viewBox="0 0 117 117" fill="none" xmlns="http://www.w3.org/2000/svg">
<g clip-path="url(#clip0_812_27545)">
<path d="M99.558 29.4034L109.632 33.2661C110.173 33.4736 110.563 33.9628 110.631 34.5442C110.666 34.8272 110.625 35.1146 110.511 35.3758C110.396 35.6371 110.213 35.8624 109.981 36.0279L99.9791 43.1212C98.7818 43.9647 97.2998 44.3012 95.8557 44.0575L88.768 42.8491L67.9357 57.6179C68.0566 58.9578 67.8907 60.3081 67.4488 61.5788C67.007 62.8495 66.2995 64.0115 65.3733 64.9874C64.4472 65.9632 63.3238 66.7305 62.0779 67.2381C60.8319 67.7457 59.4922 67.9819 58.1478 67.9312C56.8034 67.8804 55.4852 67.5437 54.2812 66.9435C53.0771 66.3433 52.0148 65.4934 51.1649 64.4505C50.3151 63.4076 49.6972 62.1955 49.3526 60.895C49.0079 59.5946 48.9443 58.2356 49.166 56.9087C49.4099 55.4763 49.9802 54.1193 50.8327 52.9427C51.6851 51.7661 52.797 50.8014 54.0821 50.1234C55.3672 49.4454 56.7911 49.0723 58.2435 49.0329C59.696 48.9935 61.138 49.2888 62.458 49.8961L83.2976 35.1222L84.5039 28.0469C84.7501 26.6033 85.5592 25.3132 86.7537 24.4667L96.7614 17.3745C96.9945 17.2101 97.2678 17.112 97.5523 17.0906C97.8367 17.0692 98.1216 17.1252 98.3767 17.2528C98.9029 17.509 99.2351 18.0395 99.2516 18.6187L99.558 29.4034Z" fill="#104BC1" fill-opacity="0.15"/>
<path d="M21.1638 52.1342C20.2599 57.4741 20.5118 62.9458 21.9024 68.1801C23.293 73.4144 25.79 78.2896 29.2249 82.4769C32.6599 86.6641 36.9529 90.066 41.8143 92.453C46.6758 94.8401 51.9927 96.1567 57.4062 96.3142C62.8198 96.4717 68.2043 95.4664 73.1963 93.366C78.1883 91.2656 82.6718 88.119 86.3443 84.1386C90.0169 80.1581 92.7931 75.4363 94.4856 70.2917C96.1781 65.147 96.7477 59.6993 96.1557 54.3158C96.052 53.681 96.0786 53.0317 96.2338 52.4074C96.389 51.7832 96.6696 51.197 97.0586 50.6847C97.4476 50.1724 97.9368 49.7445 98.4964 49.4273C99.056 49.1101 99.6743 48.91 100.314 48.8394C100.953 48.7687 101.6 48.8289 102.215 49.0163C102.831 49.2037 103.402 49.5144 103.893 49.9294C104.385 50.3444 104.786 50.8551 105.074 51.4304C105.362 52.0057 105.53 52.6336 105.567 53.2758C106.713 63.701 104.366 74.2118 98.8932 83.159C93.4208 92.1062 85.1331 98.9837 75.3302 102.712C65.5273 106.441 54.764 106.81 44.7288 103.761C34.6935 100.713 25.9543 94.419 19.8821 85.8675C13.8198 77.3056 10.7727 66.9728 11.219 56.4914C11.6653 46.0101 15.5798 35.9737 22.348 27.9581C29.1161 19.9425 38.3546 14.4015 48.613 12.2051C58.8713 10.0088 69.5686 11.2814 79.0254 15.8232C80.1502 16.3711 81.0124 17.3419 81.4236 18.5236C81.8347 19.7053 81.7614 21.0016 81.2197 22.1294C80.6779 23.2572 79.7118 24.1247 78.5324 24.5423C77.353 24.9599 76.0562 24.8937 74.9255 24.3581C69.6381 21.8138 63.8319 20.5327 57.9648 20.616C52.0978 20.6992 46.3302 22.1445 41.1172 24.8378C35.9042 27.5312 31.3882 31.3989 27.9255 36.1359C24.4628 40.8729 22.148 46.3497 21.1638 52.1342Z" fill="#104BC1" fill-opacity="0.15"/>
<path d="M39.8319 55.3171C39.2524 58.7184 39.6125 62.2134 40.8734 65.4252C42.1342 68.6369 44.2481 71.4434 46.9868 73.542C49.7256 75.6406 52.9853 76.9516 56.4145 77.3337C59.8436 77.7157 63.312 77.1543 66.4455 75.71C69.5793 74.2607 72.2572 71.9822 74.1897 69.121C76.1222 66.2598 77.2358 62.9247 77.4098 59.4764C77.4409 58.6377 77.695 57.8225 78.1458 57.1146C78.5967 56.4067 79.2281 55.8318 79.975 55.4491C80.7219 55.0663 81.5573 54.8896 82.3952 54.937C83.2332 54.9844 84.0433 55.2544 84.7422 55.719C85.4418 56.1792 86.0067 56.8167 86.3795 57.5664C86.7522 58.3162 86.9195 59.1514 86.8642 59.9869C86.5556 65.8775 84.421 71.5259 80.7565 76.1482C77.092 80.7705 72.0795 84.1374 66.4146 85.7816C60.7497 87.4257 54.7135 87.2656 49.1438 85.3234C43.5741 83.3813 38.7471 79.7534 35.3328 74.9433C31.9185 70.1332 30.0864 64.3796 30.0905 58.4809C30.0947 52.5823 31.9351 46.8312 35.3562 42.026C38.7773 37.2208 43.6095 33.5998 49.182 31.6655C54.7545 29.7313 60.7909 29.5797 66.4534 31.232C67.0621 31.3948 67.6322 31.6775 68.1303 32.0635C68.6283 32.4496 69.0443 32.9311 69.3538 33.48C69.6633 34.0289 69.8601 34.634 69.9328 35.2599C70.0054 35.8859 69.9523 36.52 69.7767 37.1251C69.601 37.7303 69.3064 38.2943 68.9099 38.7841C68.5135 39.2739 68.0233 39.6796 67.468 39.9775C66.9127 40.2754 66.3036 40.4594 65.6762 40.5188C65.0489 40.5782 64.416 40.5118 63.8147 40.3234C61.2508 39.5737 58.5574 39.375 55.9112 39.7401C53.265 40.1053 50.7261 41.0262 48.4611 42.4422C46.196 43.8583 44.2562 45.7375 42.769 47.9564C41.2818 50.1754 40.2809 52.6839 39.8319 55.3171Z" fill="#104BC1" fill-opacity="0.15"/>
</g>
<defs>
<clipPath id="clip0_812_27545">
<rect width="101" height="101" fill="white" transform="translate(17.2061 0.230713) rotate(9.67578)"/>
</clipPath>
</defs>
</svg>
