<svg width="89" height="89" viewBox="0 0 89 89" fill="none" xmlns="http://www.w3.org/2000/svg">
<path d="M20.8332 7.83325H62.9998C65.431 7.83325 67.7626 8.79902 69.4817 10.5181C71.2007 12.2372 72.1665 14.5688 72.1665 16.9999V41.9809C67.9883 40.6272 63.5173 40.4543 59.247 41.4814C54.9768 42.5085 51.0734 44.6955 47.9678 47.8012C44.8621 50.9068 42.6751 54.8102 41.648 59.0805C40.6209 63.3507 40.7938 67.8217 42.1475 71.9999H17.1665C17.1665 72.9724 17.5528 73.905 18.2404 74.5927C18.9281 75.2803 19.8607 75.6666 20.8332 75.6666H43.6838C44.7328 77.6787 46.0638 79.5308 47.6365 81.1666H20.8332C18.402 81.1666 16.0704 80.2008 14.3514 78.4817C12.6323 76.7626 11.6665 74.4311 11.6665 71.9999V16.9999C11.6665 14.5688 12.6323 12.2372 14.3514 10.5181C16.0704 8.79902 18.402 7.83325 20.8332 7.83325ZM26.3332 18.8333C25.3607 18.8333 24.4281 19.2196 23.7404 19.9072C23.0528 20.5948 22.6665 21.5275 22.6665 22.4999V26.1666C22.6665 27.139 23.0528 28.0717 23.7404 28.7593C24.4281 29.4469 25.3607 29.8333 26.3332 29.8333H55.6665C56.639 29.8333 57.5716 29.4469 58.2592 28.7593C58.9469 28.0717 59.3332 27.139 59.3332 26.1666V22.4999C59.3332 21.5275 58.9469 20.5948 58.2592 19.9072C57.5716 19.2196 56.639 18.8333 55.6665 18.8333H26.3332ZM84.9998 64.6666C84.9998 59.3181 82.8751 54.1886 79.0932 50.4066C75.3112 46.6246 70.1817 44.4999 64.8332 44.4999C59.4846 44.4999 54.3552 46.6246 50.5732 50.4066C46.7912 54.1886 44.6665 59.3181 44.6665 64.6666C44.6665 70.0151 46.7912 75.1446 50.5732 78.9266C54.3552 82.7086 59.4846 84.8333 64.8332 84.8333C70.1817 84.8333 75.3112 82.7086 79.0932 78.9266C82.8751 75.1446 84.9998 70.0151 84.9998 64.6666ZM62.6845 55.8556L72.9732 62.6023C73.2934 62.8076 73.5439 63.0801 73.7248 63.4199C73.9082 63.7524 73.9998 64.1166 73.9998 64.5126C74.0002 64.8927 73.9097 65.2673 73.7358 65.6053C73.568 65.9386 73.3182 66.2237 73.0098 66.4339L62.7175 73.4556C62.5393 73.5776 62.3441 73.6728 62.1382 73.7379C61.6616 73.8904 61.1454 73.8604 60.6898 73.6536C60.4277 73.5297 60.1884 73.3624 59.9822 73.1586C59.7825 72.9432 59.6213 72.6952 59.5055 72.4252C59.3897 72.1503 59.3311 71.8546 59.3332 71.5563V57.7769C59.3303 57.3355 59.4561 56.9028 59.695 56.5317C59.934 56.1606 60.2758 55.867 60.6788 55.6869C60.9983 55.5364 61.3517 55.4724 61.7037 55.5014C62.0557 55.5303 62.3939 55.6512 62.6845 55.8519" fill="#104BC1"/>
</svg>
