<svg width="88" height="88" viewBox="0 0 88 88" fill="none" xmlns="http://www.w3.org/2000/svg">
<path fill-rule="evenodd" clip-rule="evenodd" d="M19.8 7.33337H68.2C71.5064 7.33337 74.6773 8.64682 77.0153 10.9848C79.3532 13.3227 80.6667 16.4937 80.6667 19.8V68.2C80.6667 71.5064 79.3532 74.6774 77.0153 77.0153C74.6773 79.3533 71.5064 80.6667 68.2 80.6667H19.8C16.4936 80.6667 13.3227 79.3533 10.9847 77.0153C8.64679 74.6774 7.33334 71.5064 7.33334 68.2V19.8C7.33334 16.4937 8.64679 13.3227 10.9847 10.9848C13.3227 8.64682 16.4936 7.33337 19.8 7.33337ZM25.6667 18.3334C26.6391 18.3334 27.5718 18.7197 28.2594 19.4073C28.947 20.0949 29.3333 21.0276 29.3333 22V51.3334C29.3333 52.3058 28.947 53.2385 28.2594 53.9261C27.5718 54.6137 26.6391 55 25.6667 55C24.6942 55 23.7616 54.6137 23.074 53.9261C22.3863 53.2385 22 52.3058 22 51.3334V22C22 21.0276 22.3863 20.0949 23.074 19.4073C23.7616 18.7197 24.6942 18.3334 25.6667 18.3334ZM44 18.3334C44.9725 18.3334 45.9051 18.7197 46.5927 19.4073C47.2804 20.0949 47.6667 21.0276 47.6667 22V44C47.6667 44.9725 47.2804 45.9051 46.5927 46.5928C45.9051 47.2804 44.9725 47.6667 44 47.6667C43.0275 47.6667 42.0949 47.2804 41.4073 46.5928C40.7197 45.9051 40.3333 44.9725 40.3333 44V22C40.3333 21.0276 40.7197 20.0949 41.4073 19.4073C42.0949 18.7197 43.0275 18.3334 44 18.3334ZM66 22C66 21.0276 65.6137 20.0949 64.9261 19.4073C64.2384 18.7197 63.3058 18.3334 62.3333 18.3334C61.3609 18.3334 60.4282 18.7197 59.7406 19.4073C59.053 20.0949 58.6667 21.0276 58.6667 22V58.6667C58.6667 59.6392 59.053 60.5718 59.7406 61.2594C60.4282 61.9471 61.3609 62.3334 62.3333 62.3334C63.3058 62.3334 64.2384 61.9471 64.9261 61.2594C65.6137 60.5718 66 59.6392 66 58.6667V22Z" fill="#E63946"/>
</svg>
