<svg width="88" height="89" viewBox="0 0 88 89" fill="none" xmlns="http://www.w3.org/2000/svg">
<path d="M47.6666 43.0333V29.8333C47.6666 28.7944 47.3146 27.9241 46.6106 27.2226C45.9066 26.521 45.0364 26.169 43.9999 26.1666C42.9635 26.1641 42.0933 26.5161 41.3893 27.2226C40.6853 27.929 40.3333 28.7993 40.3333 29.8333V44.4083C40.3333 44.8971 40.4249 45.3714 40.6083 45.8309C40.7916 46.2905 41.0666 46.7024 41.4333 47.0666L53.5333 59.1666C54.2055 59.8388 55.061 60.1749 56.0999 60.1749C57.1388 60.1749 57.9944 59.8388 58.6666 59.1666C59.3388 58.4944 59.6749 57.6388 59.6749 56.5999C59.6749 55.561 59.3388 54.7055 58.6666 54.0333L47.6666 43.0333ZM43.9999 81.1666C38.9277 81.1666 34.161 80.2035 29.6999 78.2773C25.2388 76.351 21.3583 73.7392 18.0583 70.4416C14.7583 67.144 12.1464 63.2635 10.2226 58.7999C8.29881 54.3364 7.3357 49.5697 7.33326 44.4999C7.33081 39.4301 8.29392 34.6635 10.2226 30.1999C12.1513 25.7364 14.7631 21.8558 18.0583 18.5583C21.3534 15.2607 25.2339 12.6488 29.6999 10.7226C34.1659 8.79636 38.9326 7.83325 43.9999 7.83325C49.0673 7.83325 53.8339 8.79636 58.2999 10.7226C62.7659 12.6488 66.6465 15.2607 69.9416 18.5583C73.2367 21.8558 75.8498 25.7364 77.7809 30.1999C79.712 34.6635 80.6739 39.4301 80.6666 44.4999C80.6593 49.5697 79.6962 54.3364 77.7773 58.7999C75.8584 63.2635 73.2465 67.144 69.9416 70.4416C66.6367 73.7392 62.7561 76.3523 58.2999 78.2809C53.8437 80.2096 49.077 81.1715 43.9999 81.1666Z" fill="#104BC1"/>
</svg>
