<svg width="117" height="117" viewBox="0 0 117 117" fill="none" xmlns="http://www.w3.org/2000/svg">
<g clip-path="url(#clip0_812_27525)">
<path d="M55.0209 6.67798C54.4511 6.66587 53.8855 6.77932 53.3644 7.01029C53.3644 7.01029 48.0005 9.23254 42.2305 11.6417C36.461 14.047 30.0483 16.6894 28.598 17.1987L28.3371 17.2725C23.0215 19.4202 21.1954 24.0977 20.5596 26.7872C20.5265 26.9116 20.5204 27.0169 20.4975 27.151C20.2817 28.1624 20.2122 28.8244 20.2122 28.8244L11.6834 78.8473C10.4442 86.1154 18.3225 91.0564 26.3641 92.4275C29.0447 92.8846 31.799 92.9089 34.2272 92.5347C35.8895 92.03 37.2497 90.6857 37.5109 89.1539L44.3663 48.9457C45.868 40.1382 48.4878 36.3289 54.8194 33.8618C56.4817 33.3571 74.4322 25.0094 74.4322 25.0094C75.3286 24.3741 76.3825 22.9539 76.5784 21.8051L76.6398 21.4451C76.9009 19.9134 76.3349 18.611 75.3166 17.6493C74.2984 16.6875 72.7667 16.4264 71.4873 16.9964C71.0391 17.314 44.9985 29.0585 39.5633 30.8903C34.0629 33.105 29.2919 33.0521 28.4042 31.3245C28.1088 30.9077 27.9847 29.7634 28.1164 28.6904L28.1575 28.4491C28.339 27.4082 28.9413 25.4932 31.2854 24.5491C33.6419 23.7175 39.5655 21.2163 45.3183 18.8161C47.7496 17.8001 48.0469 17.6971 49.953 16.8951C50.0199 17.8692 50.451 18.7824 51.1608 19.4529C51.8705 20.1234 52.8067 20.5021 53.783 20.5135C54.7593 20.525 55.7041 20.1683 56.4293 19.5146C57.1546 18.861 57.6071 17.9581 57.6967 16.9859L58.6761 11.2418C58.7734 10.6968 58.7531 10.1372 58.6165 9.60056C58.4799 9.06397 58.2301 8.56278 57.884 8.13059C57.5379 7.6984 57.1034 7.3452 56.6096 7.09467C56.1158 6.84414 55.5741 6.70207 55.0209 6.67798ZM83.3706 25.3039C82.7444 25.3014 82.1269 25.4502 81.5706 25.7379C81.5706 25.7379 60.0823 35.4212 56.3638 37.0767L56.2242 37.179C53.0972 38.7857 51.0326 40.9793 49.9154 43.1178C49.2901 44.3256 48.861 45.6252 48.6442 46.9678L48.4398 48.1664C48.4141 48.2841 48.3938 48.403 48.3791 48.5225L40.483 94.8348C39.2425 102.111 46.9029 107.751 54.5616 109.057C58.008 109.645 61.2441 109.432 63.8029 108.292C68.8552 106.395 94.0152 92.8807 94.0152 92.8807C95.2946 92.3107 96.2446 91.3614 96.4405 90.2126L104.928 40.431C105.255 38.5163 104.708 37.2409 103.306 36.2138C102.288 35.2521 100.339 35.2902 99.0595 35.8602C92.1491 39.4108 73.444 49.5726 69.2229 51.2173C63.3395 53.3667 58.158 53.2714 56.5698 51.0303C55.9345 50.1339 56.107 49.4224 56.3029 48.2736C56.4365 47.6133 56.6122 47.068 56.8301 46.6375C57.1582 46.0077 57.7344 45.2627 59.5697 44.2752C59.6567 44.227 59.6178 44.2243 59.7086 44.1767C62.7926 42.7992 72.2432 38.4719 78.405 35.6606C78.5748 36.5532 79.052 37.3581 79.7538 37.9352C80.4556 38.5124 81.3375 38.8252 82.246 38.8194C83.1546 38.8136 84.0324 38.4895 84.7268 37.9035C85.4211 37.3174 85.8881 36.5065 86.0464 35.6118L87.0258 29.8678C87.1231 29.3227 87.1028 28.7631 86.9662 28.2265C86.8296 27.6899 86.5799 27.1887 86.2337 26.7565C85.8876 26.3243 85.4531 25.9711 84.9593 25.7206C84.4655 25.4701 83.9238 25.328 83.3706 25.3039ZM94.3921 56.0012L93.0863 63.6599L71.4102 75.2303L72.716 67.5716L94.3921 56.0012Z" fill="#104BC1" fill-opacity="0.15"/>
</g>
<defs>
<clipPath id="clip0_812_27525">
<rect width="101" height="101" fill="white" transform="translate(17.2061 0.230713) rotate(9.67578)"/>
</clipPath>
</defs>
</svg>
