<svg width="88" height="88" viewBox="0 0 88 88" fill="none" xmlns="http://www.w3.org/2000/svg">
<path d="M3.6665 67.8334H80.6665M80.6665 67.8334L65.9998 53.1667M80.6665 67.8334L65.9998 82.5M64.1078 18.3334V16.5C64.1078 15.5276 64.4941 14.5949 65.1818 13.9073C65.8694 13.2197 66.802 12.8334 67.7745 12.8334H75.0528C76.0253 12.8334 76.9579 13.2197 77.6456 13.9073C78.3332 14.5949 78.7195 15.5276 78.7195 16.5V21.0834C78.7195 22.0558 78.3332 22.9885 77.6456 23.6761C76.9579 24.3637 76.0253 24.75 75.0528 24.75H67.8332H76.0832C77.0556 24.75 77.9883 25.1363 78.6759 25.824C79.3635 26.5116 79.7498 27.4442 79.7498 28.4167V34.8334C79.7498 35.8058 79.3635 36.7385 78.6759 37.4261C77.9883 38.1137 77.0556 38.5 76.0832 38.5H65.9998C65.0274 38.5 64.0947 38.1137 63.4071 37.4261C62.7195 36.7385 62.3332 35.8058 62.3332 34.8334V33M14.6665 36.6667V11.9277C14.6665 13.3864 14.087 14.7853 13.0556 15.8168C12.0241 16.8482 10.6252 17.4277 9.1665 17.4277H5.49984M14.6665 10.0944V38.5M23.8332 38.5H5.49984M32.9998 18.3334V16.5C32.9998 15.5276 33.3861 14.5949 34.0738 13.9073C34.7614 13.2197 35.694 12.8334 36.6665 12.8334H45.8332C46.8056 12.8334 47.7383 13.2197 48.4259 13.9073C49.1135 14.5949 49.4998 15.5276 49.4998 16.5V21.307C49.5005 22.0501 49.2754 22.7758 48.8544 23.388C48.4333 24.0002 47.8362 24.4701 47.1422 24.7354L35.3575 29.2344C34.664 29.4994 34.0673 29.9687 33.6463 30.5802C33.2254 31.1917 32.9999 31.9166 32.9998 32.659V38.5H52.2498" stroke="#104BC1" stroke-width="5.5"/>
</svg>
