<svg width="118" height="117" viewBox="0 0 118 117" fill="none" xmlns="http://www.w3.org/2000/svg">
<g clip-path="url(#clip0_812_27538)">
<path d="M23.5834 26.89L47.8146 22.4832L69.2165 34.6703L57.7844 39.1248L56.7234 45.3475C56.7234 45.3475 54.3101 42.8015 44.6317 41.1513C34.9533 39.5012 31.8326 41.1036 31.8326 41.1036L32.8936 34.8809L23.5834 26.89ZM23.5834 26.89L20.7542 43.4838" stroke="#104BC1" stroke-opacity="0.15" stroke-width="6.3125" stroke-linecap="round" stroke-linejoin="round"/>
<path d="M57.0771 43.273L56.4483 46.961C55.2331 54.0881 48.6765 58.917 41.8025 57.745C34.9284 56.573 30.3423 49.8442 31.5575 42.7172L32.1863 39.0292M73.2007 56.8228C73.2007 56.8228 75.4624 55.7014 82.5023 56.9017C89.5423 58.102 91.3053 59.9053 91.3053 59.9053M73.2007 56.8228L73.9292 52.5499L67.0946 47.1155L84.7494 43.722L100.282 52.774L92.0331 55.6365L91.3053 59.9053M73.2007 56.8228L72.997 58.0175C72.5877 60.4183 73.1488 62.8833 74.5569 64.8703C75.9651 66.8573 78.1049 68.2035 80.5056 68.6128C82.9063 69.0222 85.3713 68.461 87.3583 67.0529C89.3454 65.6447 90.6916 63.5049 91.1009 61.1042L91.3053 59.9053M69.6854 94.5169L85.0555 97.1375C88.2623 97.6842 91.0754 96.5587 93.7374 94.767C99.1862 91.1025 92.0991 86.2228 89.4639 83.9762C87.118 81.9919 84.3902 80.5098 81.4489 79.6213C78.5076 78.7329 75.4154 78.457 72.3633 78.8108M24.3825 69.4007C20.0978 70.92 9.07825 73.6304 14.3745 80.2753C16.9631 83.5214 20.0282 86.0505 24.3053 86.7797L48.69 90.9372C52.9629 91.6658 56.6971 90.296 60.2151 88.091C67.414 83.5765 57.9152 77.3678 54.3759 74.5145C46.0731 67.8266 34.4325 65.8419 24.3825 69.4007Z" stroke="#104BC1" stroke-opacity="0.15" stroke-width="6.3125" stroke-linecap="round" stroke-linejoin="round"/>
</g>
<defs>
<clipPath id="clip0_812_27538">
<rect width="101" height="101" fill="white" transform="translate(17.4561 0.230713) rotate(9.67578)"/>
</clipPath>
</defs>
</svg>
