<svg width="40" height="40" viewBox="0 0 40 40" fill="none" xmlns="http://www.w3.org/2000/svg">
<path d="M38.6484 8.07065C37.2834 8.67547 35.8172 9.08413 34.2757 9.26884C35.8662 8.31714 37.0561 6.81928 37.6235 5.05474C36.1291 5.94233 34.4937 6.5671 32.7882 6.90189C31.6413 5.67732 30.1222 4.86566 28.4667 4.59291C26.8113 4.32017 25.1121 4.6016 23.633 5.39352C22.1538 6.18544 20.9775 7.44354 20.2867 8.97249C19.5959 10.5014 19.4291 12.2157 19.8124 13.8491C16.7845 13.6971 13.8225 12.9101 11.1185 11.5392C8.41442 10.1683 6.02886 8.24419 4.11659 5.89168C3.46274 7.01958 3.08677 8.32729 3.08677 9.72001C3.08604 10.9738 3.39479 12.2083 3.98562 13.3141C4.57646 14.42 5.43111 15.3628 6.47374 16.0591C5.26456 16.0207 4.08206 15.6939 3.02465 15.1061V15.2042C3.02453 16.9627 3.63279 18.667 4.74623 20.028C5.85966 21.3891 7.40969 22.323 9.13331 22.6713C8.01159 22.9748 6.83555 23.0196 5.69402 22.802C6.18032 24.3151 7.12759 25.6382 8.40322 26.5861C9.67885 27.534 11.219 28.0593 12.808 28.0885C10.1105 30.206 6.77924 31.3546 3.34995 31.3496C2.74248 31.3497 2.13553 31.3143 1.53223 31.2433C5.01315 33.4814 9.06521 34.6692 13.2036 34.6646C27.2124 34.6646 34.8707 23.0619 34.8707 12.9991C34.8707 12.6722 34.8625 12.342 34.8478 12.015C36.3375 10.9378 37.6233 9.60378 38.6451 8.07556L38.6484 8.07065Z" fill="#104BC1"/>
</svg>
