<svg width="813" height="251" viewBox="0 0 813 251" fill="none" xmlns="http://www.w3.org/2000/svg">
<g clip-path="url(#clip0_18_361)">
<path d="M0 10C0 4.47715 4.47715 0 10 0H755C787.032 0 813 25.9675 813 58V241C813 246.523 808.523 251 803 251H52C23.2812 251 0 227.719 0 199V10Z" fill="#09296A"/>
<path d="M708.567 58.9941L784.97 -21.5629L638.618 -124.673" stroke="#4A3AFF" stroke-width="259.259" stroke-linecap="round" stroke-linejoin="round"/>
<path d="M612.219 276.007L532.077 335.196L447.494 199.26" stroke="#4A3AFF" stroke-width="259.259" stroke-linecap="round" stroke-linejoin="round"/>
<path d="M637.681 405.692L516.333 384.166" stroke="#4A3AFF" stroke-width="259.259" stroke-linecap="round" stroke-linejoin="round"/>
<path d="M465.279 411.736L493.389 492.011L405.749 532.46L328.185 410.003" stroke="#3AB8FF" stroke-width="259.259" stroke-linecap="round" stroke-linejoin="round"/>
<path d="M388.773 390.311L328.998 268.288L285.824 302.861" stroke="#4A3AFF" stroke-width="259.259" stroke-linecap="round" stroke-linejoin="round"/>
<path d="M710.811 -146.561L671.384 -266.487" stroke="#4A3AFF" stroke-width="259.259" stroke-linecap="round" stroke-linejoin="round"/>
<path d="M711.822 435.533L664.386 519.927" stroke="#4A3AFF" stroke-width="259.259" stroke-linecap="round" stroke-linejoin="round"/>
<path d="M951.991 295.731L735.219 316.096" stroke="#4A3AFF" stroke-width="259.259" stroke-linecap="round" stroke-linejoin="round"/>
<path d="M775.981 379.405L675.095 375.155L673.149 240.232L768.332 228.883" stroke="#B062FF" stroke-width="259.259" stroke-linecap="round" stroke-linejoin="round"/>
<path d="M1005.57 151.114L1018.62 194.234L833.646 197.172L797.064 58.5566" stroke="#9B93FF" stroke-width="259.259" stroke-linecap="round" stroke-linejoin="round"/>
<path d="M120.78 397.381L250.384 430.724L228.588 344.04" stroke="#9B93FF" stroke-width="259.259" stroke-linecap="round" stroke-linejoin="round"/>
</g>
<defs>
<clipPath id="clip0_18_361">
<path d="M0 10C0 4.47715 4.47715 0 10 0H755C787.032 0 813 25.9675 813 58V241C813 246.523 808.523 251 803 251H52C23.2812 251 0 227.719 0 199V10Z" fill="white"/>
</clipPath>
</defs>
</svg>
