<svg width="17" height="16" viewBox="0 0 17 16" fill="none" xmlns="http://www.w3.org/2000/svg">
<path d="M15.2715 7.1607L14.3715 6.10737C14.2049 5.90737 14.0649 5.53404 14.0649 5.26737V4.13404C14.0649 3.42737 13.4849 2.84737 12.7782 2.84737L11.6449 2.84737C11.3782 2.84737 10.9982 2.70737 10.7982 2.5407L9.74486 1.6407C9.28486 1.24737 8.53153 1.24737 8.07153 1.6407L7.00486 2.5407C6.80486 2.70737 6.43153 2.84737 6.16486 2.84737L5.01153 2.84737C4.30486 2.84737 3.72486 3.42737 3.72486 4.13404L3.72486 5.26737C3.72486 5.52737 3.59153 5.9007 3.42486 6.1007L2.52486 7.1607C2.1382 7.62737 2.1382 8.37404 2.52486 8.82737L3.42486 9.88737C3.59153 10.0807 3.72486 10.4607 3.72486 10.7207L3.72486 11.8607C3.72486 12.5674 4.30486 13.1474 5.01153 13.1474H6.17153C6.43153 13.1474 6.81153 13.2874 7.01153 13.454L8.06486 14.354C8.52486 14.7474 9.2782 14.7474 9.7382 14.354L10.7915 13.454C10.9915 13.2874 11.3649 13.1474 11.6315 13.1474H12.7649C13.4715 13.1474 14.0515 12.5674 14.0515 11.8607V10.7274C14.0515 10.4607 14.1915 10.0874 14.3582 9.88737L15.2582 8.83404C15.6649 8.3807 15.6649 7.62737 15.2715 7.1607ZM8.3982 5.4207C8.3982 5.14737 8.62486 4.9207 8.8982 4.9207C9.17153 4.9207 9.3982 5.14737 9.3982 5.4207V8.6407C9.3982 8.91404 9.17153 9.1407 8.8982 9.1407C8.62486 9.1407 8.3982 8.91404 8.3982 8.6407V5.4207ZM8.8982 11.2474C8.53153 11.2474 8.23153 10.9474 8.23153 10.5807C8.23153 10.214 8.52486 9.91404 8.8982 9.91404C9.26486 9.91404 9.56486 10.214 9.56486 10.5807C9.56486 10.9474 9.27153 11.2474 8.8982 11.2474Z" fill="#FFA033"/>
</svg>
