<svg width="21" height="19" viewBox="0 0 21 19" fill="none" xmlns="http://www.w3.org/2000/svg">
<path fill-rule="evenodd" clip-rule="evenodd" d="M15.0623 0.814038C13.5282 0.00349313 12 1.25999 12 2.74297C12 2.8072 11.9759 2.87527 11.9124 2.9408C11.8454 3.00979 11.745 3.0628 11.6302 3.07582C7.50565 3.54382 4.70357 6.0868 2.90487 8.97221C1.11507 11.8434 0.256037 15.1402 0.00615689 17.3891C-0.0442275 17.8426 0.218704 18.2727 0.645278 18.4345C1.07185 18.5964 1.5539 18.449 1.81701 18.0762C2.69955 16.826 4.25333 15.0176 6.11432 13.526C7.99615 12.0177 10.0497 10.9477 11.9574 10.921L11.9591 10.9228C11.9757 10.9413 12 10.986 12 11.0509C12 12.6465 13.711 13.8515 15.2316 12.9392C16.4939 12.1817 17.9116 11.1523 18.8999 9.97114C19.8685 8.81342 20.6235 7.24914 19.9192 5.60564C18.9204 3.27523 16.7224 1.6911 15.0623 0.814038ZM14 2.74297C14 2.64705 14.0435 2.59716 14.0706 2.57899C14.0837 2.57017 14.0915 2.56967 14.0915 2.56967C14.0915 2.56967 14.0939 2.56951 14.098 2.5704C14.102 2.57126 14.112 2.57392 14.128 2.5824C15.6401 3.38131 17.3507 4.68966 18.0809 6.39347C18.3342 6.98453 18.168 7.72911 17.366 8.68772C16.5835 9.62292 15.3808 10.5172 14.2026 11.2242C14.1679 11.245 14.1481 11.2457 14.1396 11.2456C14.1276 11.2453 14.1094 11.2417 14.0876 11.2284C14.0444 11.202 14 11.1462 14 11.0509C14 10.0066 13.2167 8.90509 11.9405 8.92104C9.36168 8.95325 6.86947 10.3576 4.86349 11.9654C4.14994 12.5373 3.4798 13.1496 2.86847 13.763C3.28592 12.5205 3.85516 11.2285 4.60211 10.0302C6.19243 7.47908 8.52471 5.44103 11.8557 5.06307C12.9756 4.936 14 4.01778 14 2.74297Z" fill="#0F44B0"/>
</svg>
