<svg width="32" height="32" viewBox="0 0 32 32" fill="none" xmlns="http://www.w3.org/2000/svg">
<path d="M23.7472 7.3213V8.30797L19.0272 5.57464C17.2406 4.54797 14.7472 4.54797 12.9739 5.57464L8.25391 8.3213V7.3213C8.25391 4.3213 9.89391 2.66797 12.8939 2.66797L19.1072 2.66797C22.1072 2.66797 23.7472 4.3213 23.7472 7.3213Z" fill="#28A745"/>
<path d="M23.786 10.627L23.5993 10.5336L21.786 9.49365L18.026 7.32031C16.8793 6.65365 15.1193 6.65365 13.9727 7.32031L10.2127 9.48031L8.39935 10.547L8.15935 10.667C5.82602 12.2403 5.66602 12.5336 5.66602 15.0536L5.66602 21.0803C5.66602 23.6003 5.82602 23.8936 8.21268 25.507L13.9727 28.827C14.546 29.1736 15.266 29.3203 15.9993 29.3203C16.7193 29.3203 17.4527 29.1603 18.026 28.827L23.8393 25.467C26.186 23.8936 26.3327 23.6136 26.3327 21.0803L26.3327 15.0536C26.3327 12.5336 26.1727 12.2403 23.786 10.627ZM19.7193 18.0003L18.906 19.0003C18.7727 19.147 18.6793 19.427 18.6927 19.627L18.7727 20.907C18.826 21.6936 18.266 22.0936 17.5327 21.8136L16.346 21.3336C16.1593 21.267 15.8527 21.267 15.666 21.3336L14.4793 21.8003C13.746 22.0936 13.186 21.6803 13.2393 20.8936L13.3193 19.6136C13.3327 19.4136 13.2393 19.1336 13.106 18.987L12.2793 18.0003C11.7727 17.4003 11.9993 16.7336 12.7593 16.5336L13.9993 16.2136C14.1993 16.1603 14.426 15.9736 14.5327 15.8136L15.226 14.747C15.6527 14.0803 16.3327 14.0803 16.7727 14.747L17.466 15.8136C17.5727 15.987 17.8127 16.1603 17.9993 16.2136L19.2393 16.5336C19.9993 16.7336 20.226 17.4003 19.7193 18.0003Z" fill="#28A745"/>
</svg>
