<svg width="839" height="122" viewBox="0 0 839 122" fill="none" xmlns="http://www.w3.org/2000/svg">
<g clip-path="url(#clip0_232_5883)">
<path d="M0 10C0 4.47716 4.47715 0 10 0H781C813.032 0 839 25.9675 839 58V112C839 117.523 834.523 122 829 122H52C23.2812 122 0 98.7188 0 70V10Z" fill="#FF8800"/>
<path d="M708.567 58.9936L784.97 -21.5634L638.618 -124.674" stroke="#4A3AFF" stroke-width="259.259" stroke-linecap="round" stroke-linejoin="round"/>
<path d="M612.218 276.007L532.077 335.197L447.493 199.261" stroke="#4A3AFF" stroke-width="259.259" stroke-linecap="round" stroke-linejoin="round"/>
<path d="M388.772 390.311L328.998 268.287L285.824 302.86" stroke="#4A3AFF" stroke-width="259.259" stroke-linecap="round" stroke-linejoin="round"/>
<path d="M710.811 -146.561L671.383 -266.487" stroke="#4A3AFF" stroke-width="259.259" stroke-linecap="round" stroke-linejoin="round"/>
<path d="M951.992 295.731L735.219 316.097" stroke="#4A3AFF" stroke-width="259.259" stroke-linecap="round" stroke-linejoin="round"/>
<path d="M775.981 379.405L675.095 375.155L673.149 240.232L768.332 228.883" stroke="#B062FF" stroke-width="259.259" stroke-linecap="round" stroke-linejoin="round"/>
<path d="M1005.57 151.114L1018.62 194.234L833.646 197.172L797.063 58.5566" stroke="#9B93FF" stroke-width="259.259" stroke-linecap="round" stroke-linejoin="round"/>
<path d="M1109.24 -170.348L989.213 -135.645" stroke="#4A3AFF" stroke-width="259.259" stroke-linecap="round" stroke-linejoin="round"/>
</g>
<defs>
<clipPath id="clip0_232_5883">
<path d="M0 10C0 4.47716 4.47715 0 10 0H781C813.032 0 839 25.9675 839 58V112C839 117.523 834.523 122 829 122H52C23.2812 122 0 98.7188 0 70V10Z" fill="white"/>
</clipPath>
</defs>
</svg>
