<svg width="16" height="14" viewBox="0 0 16 14" fill="none" xmlns="http://www.w3.org/2000/svg">
<path d="M3.16459 6.17103C2.79411 5.98578 2.64394 5.53528 2.82918 5.1648C3.01442 4.79431 3.46493 4.64414 3.83541 4.82938L6.08541 5.95438C6.45589 6.13963 6.60606 6.59013 6.42082 6.96062C6.23558 7.3311 5.78507 7.48127 5.41459 7.29603L3.16459 6.17103Z" fill="#787070"/>
<path d="M3.16459 8.42103C2.79411 8.23578 2.64394 7.78528 2.82918 7.4148C3.01442 7.04431 3.46493 6.89414 3.83541 7.07938L6.08541 8.20438C6.45589 8.38963 6.60606 8.84013 6.42082 9.21062C6.23558 9.5811 5.78507 9.73127 5.41459 9.54603L3.16459 8.42103Z" fill="#787070"/>
<path d="M13.1708 5.1648C13.3561 5.53528 13.2059 5.98578 12.8354 6.17103L10.5854 7.29603C10.2149 7.48127 9.76442 7.3311 9.57918 6.96062C9.39394 6.59013 9.54411 6.13963 9.91459 5.95438L12.1646 4.82938C12.5351 4.64414 12.9856 4.79431 13.1708 5.1648Z" fill="#787070"/>
<path d="M13.1708 7.4148C13.3561 7.78528 13.2059 8.23578 12.8354 8.42103L10.5854 9.54603C10.2149 9.73127 9.76442 9.5811 9.57918 9.21062C9.39394 8.84013 9.54411 8.38963 9.91459 8.20438L12.1646 7.07938C12.5351 6.89414 12.9856 7.04431 13.1708 7.4148Z" fill="#787070"/>
<path fill-rule="evenodd" clip-rule="evenodd" d="M8 13.0002C8.26263 13.7027 8.26267 13.7027 8.26272 13.7027L8.26954 13.7001L8.28766 13.6933L8.35562 13.6675C8.41439 13.645 8.49932 13.6123 8.60534 13.5708C8.81725 13.4878 9.11414 13.3692 9.45537 13.2264C10.133 12.943 11.0046 12.5563 11.734 12.1587C12.544 11.7171 13.741 11.2128 14.4571 10.9231C15.081 10.6707 15.5 10.065 15.5 9.3817V2.1771C15.5 1.09619 14.4653 0.28572 13.4005 0.612965C12.6982 0.828775 11.7787 1.13146 11.0756 1.43755C10.3411 1.75733 9.46534 2.24518 8.78966 2.64147C8.47987 2.82316 8.20644 2.989 8 3.11605C7.79356 2.989 7.52013 2.82316 7.21034 2.64147C6.53466 2.24518 5.65887 1.75733 4.92439 1.43755C4.22133 1.13146 3.30176 0.828775 2.59954 0.612964C1.53473 0.28572 0.5 1.09619 0.5 2.1771V9.3817C0.5 10.065 0.918954 10.6707 1.54288 10.9231C2.25904 11.2128 3.45596 11.7171 4.266 12.1587C4.99537 12.5563 5.86704 12.943 6.54463 13.2264C6.88586 13.3692 7.18275 13.4878 7.39466 13.5708C7.50068 13.6123 7.58561 13.645 7.64438 13.6675L7.71234 13.6933L7.73046 13.7001L7.73672 13.7025C7.73677 13.7025 7.73737 13.7027 8 13.0002ZM2.15889 2.04678C2.09003 2.02562 2 2.07202 2 2.1771V9.3817C2 9.44354 2.03849 9.50548 2.10536 9.53252C2.82095 9.82198 4.09021 10.3544 4.984 10.8417C5.64543 11.2023 6.46127 11.5656 7.12348 11.8426C7.16641 11.8606 7.20861 11.8782 7.25 11.8953V4.41581C7.04702 4.29059 6.76883 4.12148 6.45147 3.93535C5.78526 3.54461 4.97355 3.09495 4.32561 2.81286C3.70437 2.54239 2.85253 2.25996 2.15889 2.04678ZM8.75 4.41581V11.8953C8.79139 11.8782 8.83359 11.8606 8.87652 11.8426C9.53873 11.5656 10.3546 11.2023 11.016 10.8417C11.9098 10.3544 13.1791 9.82198 13.8946 9.53252C13.9615 9.50548 14 9.44354 14 9.3817V2.1771C14 2.07202 13.91 2.02562 13.8411 2.04678C13.1475 2.25996 12.2956 2.54239 11.6744 2.81286C11.0265 3.09495 10.2147 3.54461 9.54853 3.93535C9.23117 4.12148 8.95298 4.29059 8.75 4.41581Z" fill="#787070"/>
<path d="M8 13.0002L8.26272 13.7027C8.09336 13.766 7.90608 13.7658 7.73672 13.7025L8 13.0002Z" fill="#787070"/>
</svg>
