<svg width="18" height="18" viewBox="0 0 18 18" fill="none" xmlns="http://www.w3.org/2000/svg">
<path d="M10.5 10.875V14.625C10.5 15.2463 11.0037 15.75 11.625 15.75H14.625C15.2463 15.75 15.75 15.2463 15.75 14.625V10.875C15.75 10.2537 15.2463 9.75 14.625 9.75H11.625C11.0037 9.75 10.5 10.2537 10.5 10.875Z" fill="#104BC1"/>
<path d="M2.25 10.875L2.25 14.625C2.25 15.2463 2.75368 15.75 3.375 15.75H6.375C6.99632 15.75 7.5 15.2463 7.5 14.625V10.875C7.5 10.2537 6.99632 9.75 6.375 9.75H3.375C2.75368 9.75 2.25 10.2537 2.25 10.875Z" fill="#104BC1"/>
<path d="M2.25 3.375L2.25 6.375C2.25 6.99632 2.75368 7.5 3.375 7.5L14.625 7.5C15.2463 7.5 15.75 6.99632 15.75 6.375V3.375C15.75 2.75368 15.2463 2.25 14.625 2.25L3.375 2.25C2.75368 2.25 2.25 2.75368 2.25 3.375Z" fill="#104BC1"/>
</svg>
