<svg width="178" height="178" viewBox="0 0 178 178" fill="none" xmlns="http://www.w3.org/2000/svg">
<path fill-rule="evenodd" clip-rule="evenodd" d="M126.084 103.833C126.084 132.505 102.84 155.749 74.1676 155.749C69.7221 155.749 65.4072 155.191 61.2891 154.14L28.9586 150.098C25.2992 149.641 22.756 146.23 23.3623 142.592L25.3402 130.724C25.4434 130.105 25.4562 129.475 25.3784 128.852L23.8608 116.711C22.8097 112.593 22.251 108.278 22.251 103.833C22.251 75.1599 45.4949 51.916 74.1676 51.916C102.84 51.916 126.084 75.1599 126.084 103.833ZM44.4989 111.251C40.4027 111.251 37.0822 107.931 37.0822 103.835C37.0822 99.7385 40.4027 96.418 44.4989 96.418C48.595 96.418 51.9155 99.7385 51.9155 103.835C51.9155 107.931 48.595 111.251 44.4989 111.251ZM66.7493 103.835C66.7493 107.931 70.0699 111.251 74.166 111.251C78.2621 111.251 81.5826 107.931 81.5826 103.835C81.5826 99.7385 78.2621 96.418 74.166 96.418C70.0699 96.418 66.7493 99.7385 66.7493 103.835ZM103.833 111.251C99.737 111.251 96.4164 107.931 96.4164 103.835C96.4164 99.7385 99.737 96.418 103.833 96.418C107.929 96.418 111.25 99.7385 111.25 103.835C111.25 107.931 107.929 111.251 103.833 111.251Z" fill="#E7EDF9"/>
<path fill-rule="evenodd" clip-rule="evenodd" d="M155.752 59.3333C155.752 38.8528 139.149 22.25 118.669 22.25C104.496 22.25 92.1797 30.2011 85.938 41.886C112.022 46.8122 132.428 67.8066 136.477 94.1907L150.961 92.3801C153.575 92.0534 155.391 89.6169 154.958 87.0185L153.546 78.5415C153.472 78.0995 153.463 77.6492 153.518 77.2045L154.602 68.5323C155.353 65.5908 155.752 62.5087 155.752 59.3333Z" fill="#E7EDF9"/>
</svg>
