<svg width="88" height="88" viewBox="0 0 88 88" fill="none" xmlns="http://www.w3.org/2000/svg">
<g clip-path="url(#clip0_812_27639)">
<path d="M77 78.1C77 74.8 88 68.2 88 61.05C88 52.8 80.3 46.2 70.95 43.45C74.8 39.05 77 34.1 77 28.05C77 12.65 61.05 0 40.7 0C21.45 0 0 11.55 0 28.05C0 39.6 8.8 47.85 12.65 51.15C12.1 57.75 9.35 60.5 9.35 60.5L2.75 66H11C19.8 66 26.95 63.25 31.35 59.95V61.05C31.35 72.05 43.45 80.85 58.85 80.85H62.15C64.35 83.6 71.5 88.55 80.85 88.55C81.4 88 77 85.8 77 78.1ZM40.7 5.5C57.75 5.5 71.5 15.95 71.5 28.05C71.5 40.15 57.2 50.6 39.6 50.6H33.55L33 51.7C31.35 53.9 24.75 58.3 15.95 59.95C16.5 57.75 16.5 54.45 16.5 50.05V48.4C11 44 4.95 36.3 4.95 28.6C4.95 16.5 22.55 5.5 40.7 5.5Z" fill="#FF8800"/>
</g>
<defs>
<clipPath id="clip0_812_27639">
<rect width="88" height="88" fill="white"/>
</clipPath>
</defs>
</svg>
