<svg width="59" height="59" viewBox="0 0 59 59" fill="none" xmlns="http://www.w3.org/2000/svg">
<path d="M24.0044 53.4371H34.9952V57.1008H24.0044V53.4371ZM22.1726 47.9417H36.8271V51.6053H22.1726V47.9417ZM42.4851 7.49187C39.0424 4.04463 34.4308 2.14641 29.4998 2.14641C27.0926 2.14068 24.708 2.61057 22.483 3.52911C20.2579 4.44765 18.2363 5.79673 16.5342 7.49887C14.832 9.20101 13.4829 11.2227 12.5644 13.4477C11.6459 15.6728 11.176 18.0574 11.1817 20.4645C11.1817 25.802 13.2276 30.7948 16.7916 34.1619L17.2908 34.6302C19.3527 36.5581 22.1726 39.1994 22.1726 41.5304V46.1099H27.668V31.1245L22.5985 28.2497L24.6913 25.241L29.4998 27.7918L34.227 25.2284L36.4138 28.1684L31.3316 31.1451V46.1099H36.8271V41.5304C36.8271 39.2543 39.616 36.6154 41.6527 34.6874L42.2149 34.1539C45.8808 30.654 47.8179 25.9153 47.8179 20.4645C47.8301 18.0571 47.365 15.6712 46.4497 13.4445C45.5343 11.2179 44.1869 9.19471 42.4851 7.49187Z" fill="#104BC1"/>
</svg>
