<svg width="89" height="88" viewBox="0 0 89 88" fill="none" xmlns="http://www.w3.org/2000/svg">
<g clip-path="url(#clip0_841_24317)">
<path d="M47.1107 73.3333H10.4441C9.14745 73.3333 7.90394 72.8182 6.9871 71.9014C6.07025 70.9845 5.55518 69.741 5.55518 68.4444V19.5555C5.55518 18.2589 6.07025 17.0154 6.9871 16.0985C7.90394 15.1817 9.14745 14.6666 10.4441 14.6666H78.8885C80.1851 14.6666 81.4286 15.1817 82.3455 16.0985C83.2623 17.0154 83.7774 18.2589 83.7774 19.5555V44.9044C80.5209 40.7567 75.7838 38.0323 70.5611 37.3033C65.3384 36.5742 60.0364 37.8973 55.7685 40.9946C51.5006 44.0919 48.5989 48.7224 47.6728 53.9138C46.7467 59.1052 47.8682 64.4535 50.8018 68.8355L48.5285 71.6222L47.1107 73.3333ZM17.7774 29.3333V33.2444H59.333V29.3333H17.7774ZM17.7774 43.0222H44.6663V39.1111H17.7774V43.0222ZM17.7774 60.1333H42.2218V56.2222H17.7774V60.1333Z" fill="#104BC1"/>
<path d="M83.3619 57.6645C83.3684 55.087 82.7351 52.5483 81.5186 50.276C80.3022 48.0037 78.5407 46.0689 76.3922 44.6451C74.2437 43.2214 71.7753 42.3532 69.2086 42.1185C66.6419 41.8838 64.0571 42.29 61.686 43.3005C59.3149 44.311 57.2318 45.8943 55.6234 47.9083C54.015 49.9224 52.9318 52.3041 52.4708 54.84C52.0098 57.3759 52.1855 59.9865 52.9822 62.4378C53.7788 64.889 55.1715 67.1041 57.0352 68.8845L52.293 74.6778L54.493 83.5022L63.4397 72.6C66.2717 73.4374 69.2855 73.4374 72.1175 72.6L81.0641 83.5022L83.2641 74.6778L78.5219 68.8845C80.0469 67.4399 81.2624 65.7004 82.0944 63.7716C82.9264 61.8428 83.3577 59.765 83.3619 57.6645ZM57.1086 57.6645C57.0795 55.5457 57.6812 53.4662 58.8371 51.6903C59.9931 49.9144 61.651 48.5225 63.6002 47.6914C65.5494 46.8604 67.7017 46.6278 69.7834 47.0233C71.8651 47.4187 73.7822 48.4244 75.2909 49.9123C76.7995 51.4002 77.8315 53.3032 78.2558 55.3793C78.68 57.4553 78.4771 59.6106 77.6731 61.5711C76.8691 63.5316 75.5002 65.2086 73.7405 66.389C71.9808 67.5694 69.9097 68.1998 67.7908 68.2C64.9833 68.2066 62.2871 67.1026 60.2905 65.1288C58.2939 63.1551 57.1588 60.4718 57.133 57.6645H57.1086Z" fill="#104BC1"/>
</g>
<defs>
<clipPath id="clip0_841_24317">
<rect width="88" height="88" fill="white" transform="translate(0.666504)"/>
</clipPath>
</defs>
</svg>
