<svg width="89" height="88" viewBox="0 0 89 88" fill="none" xmlns="http://www.w3.org/2000/svg">
<g clip-path="url(#clip0_841_24310)">
<path opacity="0.5" d="M7.66683 51.3333C7.66683 52.3058 7.28052 53.2384 6.59289 53.926C5.90525 54.6137 4.97262 55 4.00016 55C3.0277 55 2.09507 54.6137 1.40744 53.926C0.719805 53.2384 0.333496 52.3058 0.333496 51.3333C0.333496 50.3608 0.719805 49.4282 1.40744 48.7406C2.09507 48.0529 3.0277 47.6666 4.00016 47.6666C4.97262 47.6666 5.90525 48.0529 6.59289 48.7406C7.28052 49.4282 7.66683 50.3608 7.66683 51.3333Z" fill="#104BC1"/>
<path d="M24.97 37.6274C24.3802 37.0321 23.6783 36.5595 22.9049 36.237C22.1314 35.9145 21.3017 35.7485 20.4637 35.7485C19.6257 35.7485 18.796 35.9145 18.0225 36.237C17.2491 36.5595 16.5472 37.0321 15.9574 37.6274C14.759 38.8342 14.0865 40.466 14.0865 42.1667C14.0865 43.8675 14.759 45.4992 15.9574 46.7061C16.5472 47.3014 17.2491 47.7739 18.0225 48.0964C18.796 48.4189 19.6257 48.585 20.4637 48.585C21.3017 48.585 22.1314 48.4189 22.9049 48.0964C23.6783 47.7739 24.3802 47.3014 24.97 46.7061C25.488 46.2043 26.1823 45.9261 26.9033 45.9314C27.6244 45.9366 28.3146 46.2248 28.8252 46.734C29.3358 47.2432 29.626 47.9325 29.6333 48.6536C29.6405 49.3746 29.3643 50.0697 28.864 50.5891C27.7633 51.6971 26.4542 52.5765 25.0122 53.1766C23.5702 53.7767 22.0238 54.0856 20.4619 54.0856C18.9 54.0856 17.3535 53.7767 15.9115 53.1766C14.4695 52.5765 13.1605 51.6971 12.0597 50.5891C9.83361 48.3513 8.58398 45.3232 8.58398 42.1667C8.58398 39.0103 9.83361 35.9822 12.0597 33.7444C13.1605 32.6363 14.4695 31.7569 15.9115 31.1568C17.3535 30.5567 18.9 30.2478 20.4619 30.2478C22.0238 30.2478 23.5702 30.5567 25.0122 31.1568C26.4542 31.7569 27.7633 32.6363 28.864 33.7444C29.3643 34.2637 29.6405 34.9588 29.6333 35.6799C29.626 36.4009 29.3358 37.0903 28.8252 37.5995C28.3146 38.1086 27.6244 38.3969 26.9033 38.4021C26.1823 38.4073 25.488 38.1291 24.97 37.6274ZM31.5004 42.1667C31.5004 39.0062 32.7559 35.9752 34.9907 33.7404C37.2255 31.5056 40.2565 30.2501 43.417 30.2501C46.5775 30.2501 49.6086 31.5056 51.8434 33.7404C54.0782 35.9752 55.3337 39.0062 55.3337 42.1667C55.3337 45.3272 54.0782 48.3583 51.8434 50.5931C49.6086 52.8279 46.5775 54.0834 43.417 54.0834C40.2565 54.0834 37.2255 52.8279 34.9907 50.5931C32.7559 48.3583 31.5004 45.3272 31.5004 42.1667ZM43.417 35.7501C41.7152 35.7501 40.0831 36.4261 38.8798 37.6295C37.6764 38.8328 37.0004 40.4649 37.0004 42.1667C37.0004 43.8685 37.6764 45.5006 38.8798 46.704C40.0831 47.9074 41.7152 48.5834 43.417 48.5834C45.1188 48.5834 46.7509 47.9074 47.9543 46.704C49.1577 45.5006 49.8337 43.8685 49.8337 42.1667C49.8337 40.4649 49.1577 38.8328 47.9543 37.6295C46.7509 36.4261 45.1188 35.7501 43.417 35.7501ZM66.3337 30.2501C61.2187 30.2501 57.167 34.4667 57.167 39.5487V51.3334C57.167 52.0627 57.4568 52.7622 57.9725 53.2779C58.4882 53.7937 59.1877 54.0834 59.917 54.0834C60.6464 54.0834 61.3459 53.7937 61.8616 53.2779C62.3773 52.7622 62.667 52.0627 62.667 51.3334V39.5487C62.667 37.3964 64.361 35.7501 66.3337 35.7501C68.3064 35.7501 70.0004 37.4001 70.0004 39.5487V51.3334C70.0004 52.0627 70.2901 52.7622 70.8058 53.2779C71.3215 53.7937 72.021 54.0834 72.7504 54.0834C73.4797 54.0834 74.1792 53.7937 74.6949 53.2779C75.2106 52.7622 75.5004 52.0627 75.5004 51.3334V39.5487C75.5004 37.3964 77.1944 35.7501 79.167 35.7501C81.1397 35.7501 82.8337 37.4001 82.8337 39.5487V51.3334C82.8337 52.0627 83.1234 52.7622 83.6392 53.2779C84.1549 53.7937 84.8544 54.0834 85.5837 54.0834C86.313 54.0834 87.0125 53.7937 87.5283 53.2779C88.044 52.7622 88.3337 52.0627 88.3337 51.3334V39.5487C88.3337 34.4667 84.282 30.2501 79.167 30.2501C76.6517 30.2501 74.3967 31.2694 72.7504 32.9084C71.9083 32.0649 70.9081 31.3958 69.807 30.9397C68.7059 30.4835 67.5256 30.2491 66.3337 30.2501Z" fill="#104BC1"/>
</g>
<defs>
<clipPath id="clip0_841_24310">
<rect width="88" height="88" fill="white" transform="translate(0.333496)"/>
</clipPath>
</defs>
</svg>
