<svg width="71" height="71" viewBox="0 0 71 71" fill="none" xmlns="http://www.w3.org/2000/svg">
<path d="M46.5938 35.5C46.5938 38.4422 45.4249 41.264 43.3445 43.3445C41.264 45.4249 38.4422 46.5938 35.5 46.5938C32.5578 46.5938 29.736 45.4249 27.6555 43.3445C25.5751 41.264 24.4063 38.4422 24.4062 35.5C24.4063 32.5578 25.5751 29.736 27.6555 27.6555C29.736 25.5751 32.5578 24.4062 35.5 24.4062C38.4422 24.4062 41.264 25.5751 43.3445 27.6555C45.4249 29.736 46.5938 32.5578 46.5938 35.5Z" fill="#FF8800"/>
<path d="M0 35.5C0 35.5 13.3125 11.0938 35.5 11.0938C57.6875 11.0938 71 35.5 71 35.5C71 35.5 57.6875 59.9062 35.5 59.9062C13.3125 59.9062 0 35.5 0 35.5ZM35.5 51.0312C39.6191 51.0312 43.5696 49.3949 46.4823 46.4823C49.3949 43.5696 51.0312 39.6191 51.0312 35.5C51.0312 31.3809 49.3949 27.4304 46.4823 24.5177C43.5696 21.6051 39.6191 19.9688 35.5 19.9688C31.3809 19.9688 27.4304 21.6051 24.5177 24.5177C21.6051 27.4304 19.9688 31.3809 19.9688 35.5C19.9688 39.6191 21.6051 43.5696 24.5177 46.4823C27.4304 49.3949 31.3809 51.0312 35.5 51.0312Z" fill="#FF8800"/>
</svg>
