<svg width="71" height="71" viewBox="0 0 71 71" fill="none" xmlns="http://www.w3.org/2000/svg">
<path d="M35.4764 43.3396C33.9231 43.341 32.4044 42.8809 31.113 42.0177C29.8216 41.1545 28.8157 39.9272 28.223 38.4914C27.6303 37.0556 27.4775 35.4761 27.784 33.9533C28.0904 32.4305 28.8424 31.0331 29.9444 29.9384C30.1522 29.7325 30.3986 29.5695 30.6694 29.4588C30.9402 29.3481 31.2302 29.2919 31.5227 29.2932C31.8153 29.2946 32.1047 29.3536 32.3745 29.4668C32.6443 29.5801 32.8891 29.7453 33.095 29.9532C33.3009 30.161 33.4638 30.4074 33.5745 30.6782C33.6852 30.949 33.7415 31.239 33.7401 31.5315C33.7387 31.8241 33.6797 32.1135 33.5665 32.3833C33.4533 32.653 33.288 32.8979 33.0802 33.1038C32.7611 33.4158 32.5076 33.7886 32.3349 34.2002C32.1621 34.6117 32.0735 35.0537 32.0744 35.5C32.035 36.2026 32.2165 36.9 32.5933 37.4943C32.9701 38.0887 33.5233 38.5502 34.1756 38.8144C34.8279 39.0786 35.5464 39.1321 36.2306 38.9674C36.9148 38.8028 37.5303 38.4283 37.991 37.8963C38.4121 37.479 38.9809 37.2448 39.5737 37.2448C40.1666 37.2448 40.7354 37.479 41.1564 37.8963C41.5667 38.321 41.7961 38.8884 41.7961 39.479C41.7961 40.0695 41.5667 40.637 41.1564 41.0617C40.4088 41.8001 39.5213 42.3819 38.546 42.7731C37.5707 43.1642 36.5271 43.3568 35.4764 43.3396Z" fill="#FF8800"/>
<path d="M65.7992 35.5C65.7992 43.5422 62.6044 51.2549 56.9178 56.9416C51.2311 62.6282 43.5184 65.823 35.4762 65.823C27.4341 65.823 19.7213 62.6282 14.0347 56.9416C8.34805 51.2549 5.15332 43.5422 5.15332 35.5C5.15332 27.4579 8.34805 19.7451 14.0347 14.0585C19.7213 8.37185 27.4341 5.17712 35.4762 5.17712C36.0647 5.17712 36.629 5.41088 37.0451 5.82698C37.4612 6.24308 37.695 6.80742 37.695 7.39587V18.6375C37.6873 19.2236 37.4511 19.7835 37.0367 20.198C36.6222 20.6124 36.0623 20.8486 35.4762 20.8563C32.579 20.8363 29.7433 21.6922 27.3408 23.3117C24.9248 24.9129 23.0407 27.1977 21.9289 29.8744C20.8171 32.5511 20.5281 35.4983 21.0987 38.34C22.0267 41.7113 24.119 44.6448 27.0043 46.62C29.8896 48.5952 33.3814 49.4844 36.86 49.1298C40.3386 48.7752 43.5792 47.1998 46.0066 44.683C48.434 42.1662 49.8913 38.8709 50.12 35.3817C50.116 35.0892 50.1707 34.7989 50.2808 34.5279C50.3909 34.257 50.5541 34.0108 50.761 33.8039C50.9678 33.5971 51.214 33.4338 51.485 33.3237C51.756 33.2136 52.0463 33.159 52.3387 33.163H63.5804C63.882 33.1625 64.1805 33.2236 64.4577 33.3424C64.7349 33.4613 64.985 33.6353 65.1927 33.8541C65.4003 34.0728 65.5612 34.3316 65.6655 34.6146C65.7698 34.8976 65.8152 35.1989 65.7992 35.5Z" fill="#FF8800"/>
<path d="M64.7344 18.1345C64.6572 18.7101 64.4216 19.2529 64.054 19.7024L57.6344 26.122C56.7215 27.0387 55.592 27.7102 54.3507 28.0745C53.6225 28.2981 52.8641 28.4079 52.1023 28.3999C51.5807 28.4462 51.056 28.4462 50.5344 28.3999L46.5998 27.6308L39.8548 34.4054C39.4307 34.8087 38.8721 35.0406 38.2869 35.0562C37.6987 35.0557 37.1347 34.8216 36.719 34.4054C36.5097 34.2014 36.3433 33.9576 36.2297 33.6883C36.1161 33.419 36.0576 33.1297 36.0576 32.8374C36.0576 32.5452 36.1161 32.2559 36.2297 31.9866C36.3433 31.7173 36.5097 31.4735 36.719 31.2695L43.4936 24.4654L42.6948 20.5604C42.4561 19.3017 42.5169 18.0045 42.8723 16.7737C43.2367 15.5323 43.9082 14.4029 44.8248 13.4899L51.1853 7.12953C51.6223 6.73196 52.1684 6.47437 52.7532 6.38994C53.3004 6.31066 53.8587 6.40371 54.3507 6.65619C54.8388 6.90448 55.2485 7.28341 55.534 7.75078C55.8229 8.27375 55.9467 8.87194 55.889 9.46661L54.9423 16.1524L61.5986 15.2354C62.1558 15.1807 62.7165 15.2954 63.2073 15.5646C63.6982 15.8338 64.0964 16.2449 64.3498 16.7441C64.5908 17.1687 64.7229 17.6464 64.7344 18.1345Z" fill="#FF8800"/>
</svg>
