<svg width="89" height="88" viewBox="0 0 89 88" fill="none" xmlns="http://www.w3.org/2000/svg">
<path d="M38.714 11.4125C35.0431 10.6912 31.2511 10.8833 27.6718 11.9718C24.0926 13.0604 20.8358 15.012 18.188 17.655C15.3629 20.4676 13.3278 23.9742 12.287 27.8224C11.2463 31.6706 11.2366 35.7249 12.259 39.578C13.2826 38.6945 14.5139 38.0858 15.8374 37.809C17.1609 37.5323 18.533 37.5965 19.8248 37.9958C21.1166 38.395 22.2857 39.1162 23.2223 40.0914C24.1588 41.0667 24.8319 42.2641 25.1785 43.571C26.2585 43.4149 27.359 43.4825 28.4118 43.7697C29.4645 44.0569 30.447 44.5575 31.298 45.2404C32.1491 45.9234 32.8507 46.774 33.3591 47.7396C33.8675 48.7051 34.172 49.7649 34.2535 50.853C36.1576 50.9847 37.95 51.7995 39.3011 53.1476C40.6522 54.4957 41.4711 56.2863 41.607 58.19C43.1257 58.2968 44.5816 58.838 45.8012 59.7493C47.0208 60.6606 47.9525 61.9034 48.4853 63.3296C49.0181 64.7557 49.1294 66.305 48.806 67.7927C48.4827 69.2804 47.7382 70.6437 46.6615 71.72L45.369 73.007L49.1695 76.5985C49.6769 77.079 50.352 77.3422 51.0507 77.332C51.7494 77.3217 52.4165 77.0388 52.9095 76.5435C53.3665 76.0856 53.6435 75.4786 53.6899 74.8334C53.7364 74.1881 53.5492 73.5477 53.1625 73.029L52.9535 72.82L52.695 72.523L52.1395 71.962C51.8826 71.7065 51.6787 71.4027 51.5396 71.0681C51.4004 70.7335 51.3288 70.3747 51.3288 70.0123C51.3288 69.6499 51.4004 69.2911 51.5396 68.9565C51.6787 68.6219 51.8826 68.3181 52.1395 68.0625C52.6547 67.5503 53.3517 67.2629 54.0783 67.2629C54.8048 67.2629 55.5018 67.5503 56.017 68.0625L56.787 68.8325C56.952 68.9975 57.106 69.1662 57.249 69.3385L57.6615 69.7565C57.9021 70.001 58.1889 70.1951 58.5052 70.3276C58.8215 70.4602 59.161 70.5284 59.504 70.5284C59.847 70.5284 60.1865 70.4602 60.5028 70.3276C60.8192 70.1951 61.1059 70.001 61.3465 69.7565C61.8358 69.2649 62.1106 68.5995 62.1106 67.9058C62.1106 67.2121 61.8358 66.5467 61.3465 66.055L60.5215 65.23C60.2576 64.9657 60.0503 64.6505 59.9122 64.3034C59.7742 63.9564 59.7083 63.5849 59.7185 63.2115C59.7175 62.6682 59.8775 62.1368 60.1782 61.6844C60.479 61.2319 60.907 60.8786 61.4083 60.6692C61.9096 60.4597 62.4617 60.4034 62.9949 60.5074C63.5282 60.6114 64.0187 60.8711 64.4045 61.2535L65.026 61.8805C65.2938 62.1498 65.6122 62.3634 65.9628 62.5092C66.3135 62.655 66.6895 62.73 67.0693 62.73C67.449 62.73 67.825 62.655 68.1757 62.5092C68.5263 62.3634 68.8447 62.1498 69.1125 61.8805C69.6516 61.3349 69.9539 60.5988 69.9539 59.8318C69.9539 59.0648 69.6516 58.3287 69.1125 57.783L68.975 57.64L68.4745 57.1725L64.212 52.8935C63.9559 52.6381 63.7527 52.3346 63.6141 52.0005C63.4754 51.6664 63.4041 51.3082 63.4041 50.9465C63.4041 50.5848 63.4754 50.2266 63.6141 49.8925C63.7527 49.5584 63.9559 49.255 64.212 48.9995C64.7275 48.4857 65.4256 48.1971 66.1535 48.1971C66.8814 48.1971 67.5795 48.4857 68.095 48.9995L72.099 53.0145L72.3685 53.2565L72.6985 53.5865C73.5506 54.2807 74.6302 54.6335 75.7278 54.5766C76.8254 54.5197 77.8627 54.0571 78.6385 53.2785C79.4724 52.4406 79.9406 51.3065 79.9406 50.1243C79.9406 48.9421 79.4724 47.808 78.6385 46.97L74.5795 42.8945L74.42 42.746L57.964 26.015H53.751L44.335 33.176C39.781 36.641 33.28 35.761 29.8095 31.207C28.9824 30.1257 28.377 28.8918 28.0279 27.5759C27.6789 26.2601 27.5931 24.8883 27.7756 23.5392C27.958 22.1902 28.405 20.8904 29.091 19.7145C29.777 18.5386 30.6884 17.5098 31.773 16.687L38.714 11.4125ZM59.119 20.515C59.4838 20.5158 59.8447 20.5892 60.1809 20.7308C60.517 20.8724 60.8217 21.0795 61.077 21.34L75.905 36.41C76.9615 34.3209 77.584 32.0395 77.7351 29.7033C77.8862 27.3672 77.5627 25.0246 76.7841 22.8168C76.0055 20.609 74.7879 18.5817 73.2048 16.8571C71.6217 15.1325 69.7058 13.7463 67.5725 12.782L67.38 12.683C65.5909 11.6976 63.5815 11.181 61.539 11.1815H48.064L47.7945 11.4125L35.106 21.065C34.5962 21.4499 34.1676 21.9319 33.8449 22.4831C33.5223 23.0344 33.3119 23.6441 33.226 24.2771C33.1401 24.9101 33.1804 25.5538 33.3445 26.1711C33.5085 26.7885 33.7932 27.3672 34.182 27.874C34.965 28.9011 36.1237 29.5753 37.4035 29.7486C38.6833 29.9218 39.9796 29.5799 41.0075 28.798L51.1605 21.076C51.6381 20.7128 52.2215 20.5158 52.8215 20.515H59.119ZM35.4085 60.4945L31.795 64.097C31.3351 64.5558 30.7121 64.8135 30.0625 64.8135C29.4129 64.8135 28.7899 64.5558 28.33 64.097C27.8815 63.6513 27.6239 63.0486 27.6116 62.4164C27.5993 61.7842 27.8332 61.1719 28.264 60.709L28.3355 60.6375L31.9435 57.035L32.0095 56.9745C32.4748 56.5449 33.0879 56.3113 33.7211 56.3226C34.3544 56.3339 34.9588 56.5891 35.4085 57.035C35.6368 57.2615 35.818 57.531 35.9417 57.8279C36.0654 58.1247 36.129 58.4432 36.129 58.7648C36.129 59.0864 36.0654 59.4048 35.9417 59.7017C35.818 59.9986 35.6368 60.268 35.4085 60.4945ZM35.689 71.434C36.1489 71.8928 36.7719 72.1505 37.4215 72.1505C38.0711 72.1505 38.6941 71.8928 39.154 71.434L42.7675 67.8315C43.0249 67.5756 43.2219 67.2654 43.344 66.9236C43.4662 66.5818 43.5104 66.2171 43.4735 65.856C43.4366 65.4949 43.3195 65.1466 43.1308 64.8366C42.942 64.5265 42.6863 64.2626 42.3825 64.064C41.9113 63.7543 41.3478 63.6164 40.7868 63.6735C40.2258 63.7306 39.7016 63.9792 39.3025 64.3775L35.689 67.98C35.4615 68.2064 35.281 68.4755 35.1578 68.7719C35.0346 69.0683 34.9712 69.3861 34.9712 69.707C34.9712 70.028 35.0346 70.3458 35.1578 70.6421C35.281 70.9385 35.4615 71.2076 35.689 71.434ZM19.2715 47.2505L15.6635 50.853C15.2036 51.3118 14.5806 51.5695 13.931 51.5695C13.2814 51.5695 12.6584 51.3118 12.1985 50.853C11.75 50.4073 11.4924 49.8046 11.4801 49.1724C11.4678 48.5402 11.7017 47.9279 12.1325 47.465L12.204 47.3935L15.812 43.791L15.878 43.7305C16.3431 43.302 16.9557 43.0696 17.588 43.0819C18.2203 43.0942 18.8234 43.3502 19.2715 43.7965C19.499 44.0229 19.6795 44.292 19.8027 44.5884C19.9259 44.8848 19.9893 45.2026 19.9893 45.5235C19.9893 45.8445 19.9259 46.1623 19.8027 46.4586C19.6795 46.755 19.499 47.0241 19.2715 47.2505ZM27.395 53.372L23.787 56.969C23.3271 57.4278 22.7041 57.6855 22.0545 57.6855C21.4049 57.6855 20.7819 57.4278 20.322 56.969C19.8751 56.5235 19.6185 55.922 19.6062 55.2911C19.5939 54.6602 19.8269 54.0491 20.256 53.5865L20.3275 53.515L23.9355 49.9125L24.0015 49.8465C24.4666 49.418 25.0792 49.1856 25.7115 49.1979C26.3438 49.2102 26.9469 49.4662 27.395 49.9125C27.6233 50.139 27.8045 50.4085 27.9282 50.7054C28.0519 51.0022 28.1155 51.3207 28.1155 51.6423C28.1155 51.9639 28.0519 52.2823 27.9282 52.5792C27.8045 52.8761 27.6233 53.1455 27.395 53.372Z" fill="#28A745"/>
</svg>
