<svg width="40" height="40" viewBox="0 0 40 40" fill="none" xmlns="http://www.w3.org/2000/svg">
<path d="M19.8477 11.7569C15.4993 11.7569 11.9899 15.2663 11.9899 19.6147C11.9899 23.9631 15.4993 27.4725 19.8477 27.4725C24.1961 27.4725 27.7055 23.9631 27.7055 19.6147C27.7055 15.2663 24.1961 11.7569 19.8477 11.7569ZM19.8477 24.7217C17.0356 24.7217 14.7407 22.4268 14.7407 19.6147C14.7407 16.8026 17.0356 14.5077 19.8477 14.5077C22.6598 14.5077 24.9547 16.8026 24.9547 19.6147C24.9547 22.4268 22.6598 24.7217 19.8477 24.7217ZM28.0273 9.6038C27.012 9.6038 26.1921 10.4237 26.1921 11.4389C26.1921 12.4542 27.012 13.2741 28.0273 13.2741C29.0425 13.2741 29.8624 12.458 29.8624 11.4389C29.8627 11.1979 29.8155 10.9591 29.7233 10.7363C29.6312 10.5135 29.4961 10.3111 29.3256 10.1406C29.1551 9.97015 28.9527 9.83499 28.7299 9.74287C28.5071 9.65076 28.2683 9.6035 28.0273 9.6038ZM35.1648 19.6147C35.1648 17.4999 35.1839 15.4042 35.0652 13.2932C34.9464 10.8413 34.387 8.66516 32.594 6.87216C30.7972 5.07533 28.6249 4.51981 26.173 4.40104C24.0582 4.28228 21.9625 4.30143 19.8515 4.30143C17.7367 4.30143 15.641 4.28228 13.5301 4.40104C11.0781 4.51981 8.90197 5.07916 7.10898 6.87216C5.31215 8.66899 4.75663 10.8413 4.63786 13.2932C4.51909 15.408 4.53825 17.5037 4.53825 19.6147C4.53825 21.7257 4.51909 23.8252 4.63786 25.9362C4.75663 28.3881 5.31598 30.5642 7.10898 32.3572C8.9058 34.1541 11.0781 34.7096 13.5301 34.8283C15.6449 34.9471 17.7405 34.928 19.8515 34.928C21.9663 34.928 24.062 34.9471 26.173 34.8283C28.6249 34.7096 30.8011 34.1502 32.594 32.3572C34.3909 30.5604 34.9464 28.3881 35.0652 25.9362C35.1878 23.8252 35.1648 21.7295 35.1648 19.6147ZM31.7933 28.6486C31.5137 29.3459 31.1765 29.867 30.6363 30.4033C30.0961 30.9435 29.5789 31.2807 28.8816 31.5603C26.8664 32.3611 22.0813 32.181 19.8477 32.181C17.6141 32.181 12.8251 32.3611 10.8099 31.5642C10.1126 31.2845 9.59159 30.9474 9.05522 30.4072C8.51502 29.867 8.17788 29.3497 7.8982 28.6525C7.10131 26.6334 7.28138 21.8483 7.28138 19.6147C7.28138 17.3811 7.10131 12.5921 7.8982 10.5769C8.17788 9.87964 8.51502 9.3586 9.05522 8.82224C9.59542 8.28587 10.1126 7.94489 10.8099 7.66522C12.8251 6.86833 17.6141 7.0484 19.8477 7.0484C22.0813 7.0484 26.8703 6.86833 28.8855 7.66522C29.5827 7.94489 30.1038 8.28204 30.6401 8.82224C31.1803 9.36243 31.5175 9.87964 31.7972 10.5769C32.594 12.5921 32.414 17.3811 32.414 19.6147C32.414 21.8483 32.594 26.6334 31.7933 28.6486Z" fill="#104BC1"/>
</svg>
