<svg width="118" height="117" viewBox="0 0 118 117" fill="none" xmlns="http://www.w3.org/2000/svg">
<path d="M66.0316 17.0081C43.132 13.1038 21.4196 28.5273 17.5153 51.4268C13.611 74.3264 28.9859 96.0732 51.8855 99.9775C74.8265 103.889 96.5804 88.4725 100.485 65.5729C104.389 42.6734 88.9726 20.9195 66.0316 17.0081ZM68.5457 83.1376L56.5598 72.8121L41.8296 78.5826C41.4439 78.735 41.0219 78.7706 40.6162 78.6849C40.2105 78.5992 39.839 78.3959 39.548 78.1005C39.2569 77.8051 39.0593 77.4306 38.9797 77.0236C38.9 76.6167 38.9419 76.1953 39.1002 75.812L45.2151 61.2298L35.2078 49.0643C34.9492 48.7407 34.7908 48.3485 34.7521 47.936C34.7134 47.5235 34.7961 47.1087 34.9901 46.7426C35.184 46.3765 35.4808 46.0751 35.8438 45.8755C36.2068 45.6758 36.6203 45.5866 37.0333 45.6188L52.7749 46.9366L61.2719 33.6571C62.2671 32.0764 64.6732 32.4867 65.0885 34.3078L68.7121 49.6112L84.001 53.584C84.4034 53.6887 84.7658 53.9103 85.0423 54.2208C85.3189 54.5313 85.4973 54.9167 85.5549 55.3285C85.6126 55.7402 85.547 56.1598 85.3664 56.5344C85.1858 56.9089 84.8983 57.2215 84.5402 57.4327L71.0671 65.5948L71.9975 81.4209C72.1082 83.2755 69.9594 84.3606 68.5457 83.1376Z" fill="#104BC1" fill-opacity="0.15"/>
</svg>
