<svg width="118" height="117" viewBox="0 0 118 117" fill="none" xmlns="http://www.w3.org/2000/svg">
<g clip-path="url(#clip0_812_27530)">
<path d="M102.952 27.5294L28.2795 14.7979C26.0791 14.4227 23.8197 14.9371 21.9984 16.2277C20.1771 17.5184 18.9432 19.4798 18.568 21.6802L16.4461 34.1256L24.743 35.5403L26.8649 23.0948L101.537 35.8263L91.6351 93.9049L62.5958 88.9538L61.1812 97.2507L90.2205 102.202C92.421 102.577 94.6804 102.063 96.5016 100.772C98.3229 99.4813 99.5568 97.52 99.932 95.3195L109.834 37.241C110.209 35.0405 109.695 32.7811 108.404 30.9598C107.114 29.1385 105.152 27.9046 102.952 27.5294ZM9.37302 75.6103L7.2511 88.0557L19.6965 90.1776C20.2593 86.8769 19.4878 83.4878 17.5518 80.7559C15.6157 78.024 12.6737 76.1731 9.37302 75.6103ZM12.2022 59.0165L10.7876 67.3134C13.5116 67.7778 16.1173 68.7742 18.4562 70.2457C20.795 71.7171 22.8212 73.6349 24.4189 75.8894C26.0166 78.1439 27.1546 80.691 27.7679 83.3853C28.3812 86.0796 28.4579 88.8683 27.9934 91.5923L36.2904 93.0069C37.6035 85.3052 35.8034 77.3973 31.286 71.0228C26.7686 64.6484 19.9039 60.3296 12.2022 59.0165ZM15.0315 42.4226L13.6169 50.7195C18.5199 51.5555 23.2103 53.349 27.4202 55.9976C31.6302 58.6463 35.2772 62.0982 38.1531 66.1563C41.0289 70.2144 43.0773 74.7992 44.1813 79.649C45.2853 84.4987 45.4233 89.5184 44.5873 94.4215L52.8843 95.8361C57.1847 70.6134 40.2127 46.7159 15.0315 42.4226ZM55.7452 54.0175L54.3306 62.3144L67.4993 72.7135L83.3699 67.2655L84.7845 58.9686L68.9139 64.4166L55.7452 54.0175ZM73.865 35.3773L48.9265 43.9326L69.6212 60.2681L94.5597 51.7129L73.865 35.3773Z" fill="#104BC1" fill-opacity="0.15"/>
</g>
<defs>
<clipPath id="clip0_812_27530">
<rect width="101" height="101" fill="white" transform="translate(17.9561 0.230713) rotate(9.67578)"/>
</clipPath>
</defs>
</svg>
