<svg width="89" height="88" viewBox="0 0 89 88" fill="none" xmlns="http://www.w3.org/2000/svg">
<path d="M59.1666 62.3333V69.6666H7.83331V62.3333C7.83331 62.3333 7.83331 47.6666 33.5 47.6666C59.1666 47.6666 59.1666 62.3333 59.1666 62.3333ZM46.3333 27.5C46.3333 24.9618 45.5807 22.4806 44.1705 20.3702C42.7604 18.2597 40.7561 16.6148 38.4111 15.6435C36.0661 14.6722 33.4857 14.4181 30.9963 14.9132C28.5069 15.4084 26.2202 16.6307 24.4254 18.4254C22.6307 20.2202 21.4084 22.5069 20.9132 24.9963C20.4181 27.4857 20.6722 30.0661 21.6435 32.4111C22.6149 34.7561 24.2597 36.7604 26.3702 38.1705C28.4806 39.5806 30.9618 40.3333 33.5 40.3333C36.9036 40.3333 40.1678 38.9812 42.5745 36.5745C44.9812 34.1678 46.3333 30.9036 46.3333 27.5ZM58.9466 47.6666C61.2007 49.411 63.0451 51.6282 64.3501 54.1622C65.6551 56.6961 66.3889 59.4852 66.5 62.3333V69.6666H81.1666V62.3333C81.1666 62.3333 81.1666 49.0233 58.9466 47.6666ZM55.5 14.6666C52.9765 14.6549 50.5089 15.4093 48.4233 16.83C50.6506 19.942 51.8482 23.673 51.8482 27.5C51.8482 31.3269 50.6506 35.0579 48.4233 38.17C50.5089 39.5907 52.9765 40.345 55.5 40.3333C58.9036 40.3333 62.1678 38.9812 64.5745 36.5745C66.9812 34.1678 68.3333 30.9036 68.3333 27.5C68.3333 24.0964 66.9812 20.8322 64.5745 18.4254C62.1678 16.0187 58.9036 14.6666 55.5 14.6666Z" fill="#FF8800"/>
</svg>
