<svg width="89" height="89" viewBox="0 0 89 89" fill="none" xmlns="http://www.w3.org/2000/svg">
<path d="M26.6891 18.4558C27.3432 18.4561 27.9852 18.6314 28.5487 18.9634C29.1122 19.2955 29.5766 19.7722 29.8938 20.3441L34.38 28.4218C34.6691 28.9429 34.8269 29.5265 34.8397 30.1223C34.8525 30.7181 34.7198 31.308 34.4533 31.841L30.1321 40.4833C30.1321 40.4833 31.3843 46.9201 36.624 52.1616C41.8655 57.4013 48.2803 58.6333 48.2803 58.6333L56.9226 54.3121C57.4559 54.0453 58.0461 53.9125 58.6422 53.9253C59.2383 53.9381 59.8224 54.096 60.3436 54.3855L68.447 58.8918C69.0179 59.2097 69.4935 59.6745 69.8245 60.2379C70.1556 60.8013 70.33 61.443 70.3298 62.0965V71.397C70.3298 76.1343 65.9298 79.5553 61.4418 78.041C52.2238 74.9316 37.9165 69.0081 28.8451 59.9405C19.7775 50.871 13.8558 36.5618 10.7446 27.3438C9.2303 22.8558 12.6513 18.4558 17.3886 18.4558H26.6891Z" fill="#104BC1" stroke="#104BC1" stroke-width="7.33333" stroke-linejoin="round"/>
<path d="M71.8333 28.0001H49.8333V9.66675H71.8333V15.1667L80.9999 11.5001V26.1667L71.8333 22.5001V28.0001Z" fill="#104BC1" stroke="#104BC1" stroke-width="7.33333" stroke-linecap="round" stroke-linejoin="round"/>
</svg>
