<svg width="17" height="16" viewBox="0 0 17 16" fill="none" xmlns="http://www.w3.org/2000/svg">
<path d="M9.56524 2.00065C9.56524 1.63246 9.26676 1.33398 8.89857 1.33398C8.53038 1.33398 8.2319 1.63246 8.2319 2.00065V3.00065C8.2319 3.01914 8.23266 3.03745 8.23413 3.05556C6.34123 3.37191 4.89857 5.01714 4.89857 6.99992V9.66732C4.89857 10.0008 4.62516 10.579 4.32596 11.112C3.90495 11.862 3.98205 12.7662 4.78584 13.0723C5.59425 13.3801 6.88741 13.6673 8.89857 13.6673C10.9097 13.6673 12.2029 13.3801 13.0113 13.0723C13.8151 12.7662 13.8922 11.862 13.4712 11.112C13.172 10.579 12.8986 10.0008 12.8986 9.66732L12.8986 7.00024C12.8986 5.01746 11.4559 3.37197 9.56301 3.05557C9.56448 3.03746 9.56524 3.01914 9.56524 3.00065V2.00065Z" fill="#FFA033"/>
<path d="M6.84531 14.217C6.87019 14.2388 6.90024 14.2641 6.93524 14.2921C7.03544 14.3722 7.17858 14.4761 7.35949 14.5795C7.71853 14.7847 8.2494 15.0007 8.89858 15.0007C9.54777 15.0007 10.0786 14.7847 10.4377 14.5795C10.6186 14.4761 10.7617 14.3722 10.8619 14.2921C10.8969 14.2641 10.927 14.2388 10.9519 14.217C10.369 14.2896 9.68926 14.334 8.89858 14.334C8.1079 14.334 7.4282 14.2896 6.84531 14.217Z" fill="#FFA033"/>
</svg>
