<svg width="16" height="16" viewBox="0 0 16 16" fill="none" xmlns="http://www.w3.org/2000/svg">
<path d="M14.6666 9.99967V5.99967C14.6666 2.66634 13.3333 1.33301 9.99992 1.33301H5.99992C2.66659 1.33301 1.33325 2.66634 1.33325 5.99967V9.99967C1.33325 13.333 2.66659 14.6663 5.99992 14.6663H9.99992C13.3333 14.6663 14.6666 13.333 14.6666 9.99967Z" stroke="#999999" stroke-width="1.5" stroke-linecap="round" stroke-linejoin="round"/>
<path d="M1.67993 4.74023H14.3199" stroke="#999999" stroke-width="1.5" stroke-linecap="round" stroke-linejoin="round"/>
<path d="M5.67993 1.40625V4.64625" stroke="#999999" stroke-width="1.5" stroke-linecap="round" stroke-linejoin="round"/>
<path d="M10.3201 1.40625V4.34625" stroke="#999999" stroke-width="1.5" stroke-linecap="round" stroke-linejoin="round"/>
<path d="M6.5 9.63308V8.83308C6.5 7.80642 7.22667 7.38642 8.11333 7.89975L8.80667 8.29975L9.5 8.69975C10.3867 9.21308 10.3867 10.0531 9.5 10.5664L8.80667 10.9664L8.11333 11.3664C7.22667 11.8798 6.5 11.4598 6.5 10.4331V9.63308V9.63308Z" stroke="#999999" stroke-width="1.5" stroke-miterlimit="10" stroke-linecap="round" stroke-linejoin="round"/>
</svg>
