<svg width="32" height="32" viewBox="0 0 32 32" fill="none" xmlns="http://www.w3.org/2000/svg">
<path d="M11.8469 4.66308L14.4368 4.02794C15.152 3.85255 15.874 4.29014 16.0493 5.00533L21.1305 25.7247C21.3059 26.4399 20.8683 27.1619 20.1531 27.3373L17.5632 27.9724C16.848 28.1478 16.126 27.7102 15.9506 26.995L10.8695 6.27562C10.6941 5.56043 11.1317 4.83847 11.8469 4.66308Z" fill="#081227"/>
<path d="M8 4.00019L5.33333 4.00019C4.59695 4.00019 4 4.59714 4 5.33352L4 26.6669C4 27.4032 4.59695 28.0002 5.33333 28.0002H8C8.73638 28.0002 9.33333 27.4032 9.33333 26.6669L9.33333 5.33352C9.33333 4.59714 8.73638 4.00019 8 4.00019Z" fill="#081227"/>
<path d="M26.6667 4.00019L24 4.00019C23.2636 4.00019 22.6667 4.59714 22.6667 5.33352L22.6667 26.6669C22.6667 27.4032 23.2636 28.0002 24 28.0002H26.6667C27.403 28.0002 28 27.4032 28 26.6669L28 5.33352C28 4.59714 27.403 4.00019 26.6667 4.00019Z" fill="#081227"/>
</svg>
