<svg width="839" height="122" viewBox="0 0 839 122" fill="none" xmlns="http://www.w3.org/2000/svg">
<g clip-path="url(#clip0_348_10115)">
<path d="M0 10C0 4.47716 4.47715 0 10 0H781C813.032 0 839 25.9675 839 58V112C839 117.523 834.523 122 829 122H52C23.2812 122 0 98.7188 0 70V10Z" fill="#8C4B00"/>
<path d="M708.567 58.9942L784.97 -21.5628L638.618 -124.673" stroke="#4A3AFF" stroke-width="259.259" stroke-linecap="round" stroke-linejoin="round"/>
<path d="M612.219 276.007L532.077 335.196L447.494 199.26" stroke="#4A3AFF" stroke-width="259.259" stroke-linecap="round" stroke-linejoin="round"/>
<path d="M388.773 390.311L328.998 268.288L285.824 302.861" stroke="#4A3AFF" stroke-width="259.259" stroke-linecap="round" stroke-linejoin="round"/>
<path d="M710.811 -146.561L671.384 -266.487" stroke="#4A3AFF" stroke-width="259.259" stroke-linecap="round" stroke-linejoin="round"/>
<path d="M951.991 295.731L735.219 316.096" stroke="#4A3AFF" stroke-width="259.259" stroke-linecap="round" stroke-linejoin="round"/>
<path d="M775.981 379.405L675.095 375.155L673.149 240.232L768.332 228.884" stroke="#B062FF" stroke-width="259.259" stroke-linecap="round" stroke-linejoin="round"/>
<path d="M1005.57 151.114L1018.62 194.233L833.646 197.172L797.064 58.5564" stroke="#9B93FF" stroke-width="259.259" stroke-linecap="round" stroke-linejoin="round"/>
<path d="M1109.24 -170.348L989.213 -135.645" stroke="#4A3AFF" stroke-width="259.259" stroke-linecap="round" stroke-linejoin="round"/>
</g>
<defs>
<clipPath id="clip0_348_10115">
<path d="M0 10C0 4.47716 4.47715 0 10 0H781C813.032 0 839 25.9675 839 58V112C839 117.523 834.523 122 829 122H52C23.2812 122 0 98.7188 0 70V10Z" fill="white"/>
</clipPath>
</defs>
</svg>
