<?xml version="1.0" encoding="UTF-8"?>
<svg version="1.1" xmlns="http://www.w3.org/2000/svg" width="24" height="24">
<path d="M0 0 C1.32 0 2.64 0 4 0 C5.01866229 1.65532623 6.01810813 3.32260138 7 5 C9.08533633 5.87822312 9.08533633 5.87822312 11 6 C11 4.02 11 2.04 11 0 C11.99 0 12.98 0 14 0 C14 1.98 14 3.96 14 6 C14.99 6 15.98 6 17 6 C17 6.66 17 7.32 17 8 C16.01 8 15.02 8 14 8 C14 8.66 14 9.32 14 10 C14.99 10 15.98 10 17 10 C17 10.66 17 11.32 17 12 C16.01 12 15.02 12 14 12 C14 13.98 14 15.96 14 18 C12.68 18 11.36 18 10 18 C8.98133771 16.34467377 7.98189187 14.67739862 7 13 C4.91466367 12.12177688 4.91466367 12.12177688 3 12 C3 13.98 3 15.96 3 18 C2.01 18 1.02 18 0 18 C0 16.02 0 14.04 0 12 C-0.99 12 -1.98 12 -3 12 C-3 11.34 -3 10.68 -3 10 C-2.01 10 -1.02 10 0 10 C0 9.34 0 8.68 0 8 C-0.99 8 -1.98 8 -3 8 C-3 7.34 -3 6.68 -3 6 C-2.01 6 -1.02 6 0 6 C0 4.02 0 2.04 0 0 Z M3 8 C3 8.66 3 9.32 3 10 C3.66 10 4.32 10 5 10 C5 9.34 5 8.68 5 8 C4.34 8 3.68 8 3 8 Z M9 8 C9 8.66 9 9.32 9 10 C9.66 10 10.32 10 11 10 C11 9.34 11 8.68 11 8 C10.34 8 9.68 8 9 8 Z " fill="#000000" transform="translate(5,3)"/>
</svg>
