<svg width="32" height="32" viewBox="0 0 32 32" fill="none" xmlns="http://www.w3.org/2000/svg">
<path d="M16 17.3327C18.9455 17.3327 21.3333 14.9449 21.3333 11.9993C21.3333 9.05383 18.9455 6.66602 16 6.66602C13.0545 6.66602 10.6666 9.05383 10.6666 11.9993C10.6666 14.9449 13.0545 17.3327 16 17.3327Z" fill="#081227"/>
<path d="M8.34929 23.9993C6.45603 27.5594 12.7231 29.3327 16 29.3327C19.2768 29.3327 25.5439 27.5594 23.6507 23.9993C22.2269 21.3221 19.3471 18.666 16 18.666C12.6528 18.666 9.77303 21.3221 8.34929 23.9993Z" fill="#081227"/>
<path d="M9.99997 15.9993C9.99997 17.4721 8.80606 18.666 7.3333 18.666C5.86054 18.666 4.66664 17.4721 4.66664 15.9993C4.66664 14.5266 5.86054 13.3327 7.3333 13.3327C8.80606 13.3327 9.99997 14.5266 9.99997 15.9993Z" fill="#081227"/>
<path d="M3.86095 25.9255C3.53356 26.5851 2.73345 26.8544 2.07385 26.527C1.41425 26.1996 1.14494 25.3995 1.47233 24.7399C1.96217 23.753 2.7036 22.7621 3.6363 22.0039C4.56936 21.2454 5.76499 20.666 7.12953 20.666C7.86591 20.666 8.46287 21.263 8.46287 21.9993C8.46287 22.7357 7.86591 23.3327 7.12953 23.3327C6.54156 23.3327 5.921 23.5833 5.31837 24.0732C4.71538 24.5633 4.20162 25.2391 3.86095 25.9255Z" fill="#081227"/>
<path d="M27.7467 15.9993C27.7467 17.4721 26.5528 18.666 25.08 18.666C23.6073 18.666 22.4134 17.4721 22.4134 15.9993C22.4134 14.5266 23.6073 13.3327 25.08 13.3327C26.5528 13.3327 27.7467 14.5266 27.7467 15.9993Z" fill="#081227"/>
<path d="M30.5335 24.7399C30.8609 25.3995 30.5916 26.1996 29.932 26.527C29.2724 26.8544 28.4722 26.5851 28.1449 25.9255C27.8042 25.2391 27.2904 24.5633 26.6874 24.0732C26.0848 23.5833 25.4642 23.3327 24.8763 23.3327C24.1399 23.3327 23.5429 22.7357 23.5429 21.9993C23.5429 21.263 24.1399 20.666 24.8763 20.666C26.2408 20.666 27.4364 21.2454 28.3695 22.0039C29.3022 22.7621 30.0436 23.753 30.5335 24.7399Z" fill="#081227"/>
</svg>
