<svg width="33" height="32" viewBox="0 0 33 32" fill="none" xmlns="http://www.w3.org/2000/svg">
<path d="M22.9401 20.8535C23.8334 20.2669 25.0067 20.9069 25.0067 21.9735V23.6935C25.0067 25.3869 23.6867 27.2002 22.1001 27.7335L17.8467 29.1469C17.1001 29.4002 15.8867 29.4002 15.1534 29.1469L10.9001 27.7335C9.30008 27.2002 7.99341 25.3869 7.99341 23.6935L7.99341 21.9602C7.99341 20.9069 9.16674 20.2669 10.0467 20.8402L12.7934 22.6269C13.8467 23.3335 15.1801 23.6802 16.5134 23.6802C17.8467 23.6802 19.1801 23.3335 20.2334 22.6269L22.9401 20.8535Z" fill="#FF8800"/>
<path d="M27.14 8.61406L19.1534 3.37406C17.7134 2.4274 15.34 2.4274 13.9 3.37406L5.87336 8.61406C3.30003 10.2807 3.30003 14.0541 5.87336 15.7341L8.00669 17.1207L13.9 20.9607C15.34 21.9074 17.7134 21.9074 19.1534 20.9607L25.0067 17.1207L26.8334 15.9207V20.0007C26.8334 20.5474 27.2867 21.0007 27.8334 21.0007C28.38 21.0007 28.8334 20.5474 28.8334 20.0007L28.8334 13.4407C29.3667 11.7207 28.82 9.72073 27.14 8.61406Z" fill="#FF8800"/>
</svg>
