<svg width="151" height="137" viewBox="0 0 151 137" fill="none" xmlns="http://www.w3.org/2000/svg">
<g clip-path="url(#clip0_18_337)">
<path d="M65.2524 114.418C61.721 114.547 58.7537 111.789 58.6249 108.257C58.4961 104.726 61.2544 101.759 64.7858 101.63L86.2326 100.847C89.764 100.718 92.7312 103.477 92.8601 107.008C92.9889 110.54 90.2306 113.507 86.6991 113.636L65.2524 114.418Z" fill="#FFD700"/>
<path d="M74.457 131.263C70.9256 131.391 67.9584 128.633 67.8295 125.102C67.7007 121.57 70.4591 118.603 73.9905 118.474L95.4372 117.692C98.9687 117.563 101.936 120.321 102.065 123.853C102.194 127.384 99.4352 130.351 95.9038 130.48L74.457 131.263Z" fill="#FFD700"/>
<path d="M136.047 65.9501C138.949 67.9658 139.668 71.9528 137.652 74.8553L125.41 92.4821C123.394 95.3846 119.407 96.1033 116.505 94.0875C113.602 92.0718 112.884 88.0848 114.899 85.1823L127.142 67.5555C129.157 64.653 133.144 63.9343 136.047 65.9501Z" fill="#FFD700"/>
<path d="M145.251 82.7945C148.154 84.8103 148.873 88.7973 146.857 91.6997L134.615 109.327C132.599 112.229 128.612 112.948 125.71 110.932C122.807 108.916 122.088 104.929 124.104 102.027L136.346 84.3999C138.362 81.4975 142.349 80.7787 145.251 82.7945Z" fill="#FFD700"/>
<path fill-rule="evenodd" clip-rule="evenodd" d="M129.39 145.763C134.23 149.948 134.23 149.947 134.231 149.947L134.271 149.9L134.379 149.775L134.782 149.303C135.13 148.895 135.632 148.303 136.256 147.558C137.503 146.07 139.241 143.967 141.211 141.503C145.124 136.609 150.068 130.148 153.902 124.187C158.16 117.567 165.057 108.895 169.233 103.797C172.872 99.3549 173.531 93.1068 170.735 87.9911L141.262 34.0544C136.84 25.9622 125.778 24.1277 119.145 30.9337C114.77 35.4221 109.124 41.45 105.113 46.6177C100.923 52.0164 96.362 59.2515 92.9248 64.9825C91.3489 67.6101 89.9803 69.9701 88.9546 71.7658C86.8893 71.6592 84.1639 71.5363 81.1014 71.4434C74.4217 71.2407 65.8694 71.1713 59.0626 71.7821C52.547 72.3667 44.4244 73.8626 38.2844 75.1197C28.9741 77.0259 24.5432 87.3264 28.9652 95.4186L58.4388 149.355C61.2343 154.471 66.8485 157.291 72.5519 156.628C79.0985 155.867 90.1223 154.746 97.9933 154.739C105.08 154.732 113.188 154.06 119.42 153.41C122.559 153.083 125.266 152.756 127.192 152.511C128.156 152.388 128.926 152.285 129.458 152.213L130.072 152.128L130.236 152.105L130.292 152.097C130.292 152.097 130.298 152.097 129.39 145.763ZM40.8512 87.6565C40.2491 87.7798 39.7649 88.4955 40.1948 89.2822L69.6685 143.219C69.9214 143.682 70.463 143.988 71.0742 143.917C77.6156 143.157 89.2961 141.95 97.9807 141.942C104.408 141.935 112.002 141.318 118.093 140.683C118.487 140.641 118.875 140.6 119.255 140.559L88.657 84.5646C86.6252 84.4575 83.8507 84.3295 80.7133 84.2344C74.1273 84.0346 66.211 83.989 60.2062 84.5277C54.4488 85.0443 46.9162 86.4148 40.8512 87.6565ZM99.8866 78.4282L130.485 134.423C130.725 134.125 130.969 133.821 131.217 133.511C135.041 128.728 139.662 122.671 143.139 117.265C147.837 109.961 155.161 100.782 159.334 95.6876C159.724 95.2116 159.759 94.5904 159.506 94.1275L130.032 40.1908C129.602 39.4041 128.738 39.425 128.309 39.8652C123.988 44.2987 118.767 49.898 115.222 54.4643C111.526 59.2269 107.288 65.9138 103.899 71.5645C102.285 74.2563 100.894 76.6604 99.8866 78.4282Z" fill="#FFD700"/>
<path d="M129.39 145.763L134.231 149.947C133.222 151.114 131.819 151.879 130.292 152.097L129.39 145.763Z" fill="#FFD700"/>
</g>
<defs>
<clipPath id="clip0_18_337">
<rect width="153.563" height="153.563" fill="white" transform="translate(0.648071 70.2852) rotate(-28.6543)"/>
</clipPath>
</defs>
</svg>
