<svg width="138" height="115" viewBox="0 0 138 115" fill="none" xmlns="http://www.w3.org/2000/svg">
<g opacity="0.83">
<path d="M88.0784 43.9089L92.1687 46.2939L69.4285 59.2537C60.8537 64.1787 54.8269 74.5148 54.7965 84.3478L54.7737 110.554L50.6282 108.137C38.1917 100.885 35.3019 90.09 42.5535 77.6535L57.5723 51.8961C64.8238 39.4596 75.6419 36.6574 88.0784 43.9089Z" fill="#28A745"/>
<path d="M101.883 51.7352L101.045 52.2834L92.3503 57.2868L74.2521 67.6205C68.7167 70.7626 64.4625 78.0587 64.4545 84.4236L64.3202 105.232L64.3589 115.327L64.2762 116.612C65.1584 130.088 65.9876 131.461 76.4343 137.552L101.418 152.119C111.865 158.211 113.467 158.256 125.924 152.262L153.61 136.409C156.433 134.87 158.782 132.24 160.554 129.2C162.295 126.215 163.404 122.789 163.408 119.606L163.531 87.3851C162.681 73.854 161.875 72.5691 151.373 66.4456L126.389 51.8781C115.943 45.7868 114.34 45.741 101.883 51.7352ZM122.619 86.4163L124.799 92.2052C125.084 93.1124 126.02 94.1762 126.881 94.6043L132.381 97.3667C135.771 99.0471 136.075 102.335 133.142 104.699L128.284 108.458C127.556 109.07 126.815 110.342 126.64 111.277L125.706 117.324C125.15 121.073 122.082 122.396 118.95 120.273L113.837 116.847C113.04 116.309 111.654 116.019 110.724 116.217L104.635 117.259C100.923 117.909 98.7076 115.358 99.7155 111.724L101.386 105.81C101.649 104.852 101.423 103.461 101.017 102.632L98.2713 97.1796C96.539 93.7993 98.1826 90.9804 102.01 90.7678L108.108 90.4719C109.084 90.4487 110.383 89.8728 111.055 89.2279L115.379 84.8609C118.045 82.1938 121.357 82.8656 122.619 86.4163Z" fill="#28A745"/>
</g>
</svg>
