<svg width="147" height="137" viewBox="0 0 147 137" fill="none" xmlns="http://www.w3.org/2000/svg">
<g opacity="0.4" clip-path="url(#clip0_18_354)">
<path d="M40.3603 65.5765L92.4256 37.4866C101.052 32.8326 111.818 36.0528 116.472 44.6793L123.801 58.2626C123.354 58.4642 122.912 58.6829 122.474 58.919C112.41 64.3488 108.653 76.9091 114.083 86.9733C116.785 91.9824 121.254 95.429 126.302 96.9583C125.046 100.116 124.378 103.404 124.167 106.404L107.555 115.366L111.487 122.655C114.363 121.104 117.951 122.178 119.503 125.053C121.054 127.928 119.981 131.517 117.105 133.068L95.2377 144.866C92.3622 146.418 88.7736 145.344 87.2222 142.469C85.6708 139.593 86.7443 136.004 89.6197 134.453L101.074 128.273L97.1415 120.984L76.3153 132.22C67.6888 136.874 56.9228 133.654 52.2688 125.027L33.1677 89.623C28.5136 80.9966 31.7339 70.2305 40.3603 65.5765Z" fill="#0D5EBA"/>
<path fill-rule="evenodd" clip-rule="evenodd" d="M119.289 84.1643C115.023 76.2568 117.975 66.3879 125.883 62.1217C133.79 57.8554 143.659 60.8073 147.925 68.7149C150.984 74.3849 150.332 81.0633 146.803 85.9615C152.672 85.2086 158.47 86.9883 162.451 89.3879C163.898 90.2599 165.226 91.4768 166.133 93.1209C167.053 94.7863 167.351 96.5457 167.252 98.177C167.069 101.199 165.541 103.768 164.216 105.529C161.474 109.172 157.226 112.432 153.972 114.187C150.719 115.942 145.662 117.703 141.111 117.994C138.912 118.135 135.926 118 133.3 116.495C131.882 115.682 130.575 114.466 129.689 112.783C128.813 111.122 128.525 109.344 128.59 107.656C128.771 103.011 130.467 97.1882 134.319 92.6966C128.288 92.9564 122.348 89.8343 119.289 84.1643ZM131.501 72.5347C129.344 73.6983 128.539 76.3898 129.702 78.5464C130.866 80.703 133.557 81.5081 135.714 80.3445C137.871 79.181 138.676 76.4895 137.512 74.3329C136.349 72.1763 133.657 71.3712 131.501 72.5347ZM145.545 98.5674C143.044 99.9169 141.257 102.957 140.64 106.164C143.122 105.941 146.354 104.853 148.354 103.774C150.355 102.695 153.039 100.591 154.588 98.6394C151.569 97.3939 148.047 97.2179 145.545 98.5674Z" fill="#0D5EBA"/>
</g>
<defs>
<clipPath id="clip0_18_354">
<rect width="141.983" height="141.983" fill="white" transform="translate(0.666748 57.4155) rotate(-28.3474)"/>
</clipPath>
</defs>
</svg>
